<svg width="1049" height="362" viewBox="0 0 1049 362" fill="none" xmlns="http://www.w3.org/2000/svg">
<path d="M61.0188 234.358C56.5858 238.017 52.1528 242.983 47.7198 249.256C43.2868 255.529 39.5057 262.194 36.3766 269.251C33.5082 276.308 31.5524 283.365 30.5094 290.422C29.4663 297.218 29.8575 303.229 31.6828 308.457C33.7689 313.423 37.55 317.082 43.0261 319.434C48.7629 321.525 56.9769 321.394 67.6682 319.042C78.0988 316.428 88.9205 312.246 100.133 306.496C111.346 300.746 121.646 294.212 131.034 286.894C140.421 279.314 148.114 271.473 154.112 263.37C160.109 255.268 163.108 247.688 163.108 240.631C163.108 233.051 160.5 226.648 155.285 221.42C150.33 216.193 143.942 211.619 136.119 207.698C128.557 203.517 120.082 199.857 110.694 196.721C101.568 193.323 92.7016 189.795 84.0964 186.135C75.7519 182.215 68.3202 177.772 61.8011 172.806C55.282 167.84 50.9794 161.697 48.8932 154.379C46.0248 144.447 47.0679 133.208 52.0224 120.662C57.2377 107.855 64.7998 95.3095 74.7089 83.0251C84.6179 70.7407 96.2219 59.6325 109.521 49.7005C122.82 39.5071 136.119 32.1887 149.418 27.7454C162.977 23.3021 175.625 22.3873 187.359 25.001C199.354 27.6147 209.133 35.4558 216.695 48.5243C218.52 44.6037 220.867 40.1605 223.735 35.1944C226.865 30.2284 229.863 25.3931 232.732 20.6884C235.6 15.9838 238.338 11.8018 240.946 8.14267C243.814 4.4835 246.031 2.13117 247.595 1.08569C249.942 -0.482527 253.723 -0.351843 258.939 1.47774C264.154 3.04597 268.978 5.52898 273.411 8.92677C278.105 12.0632 281.625 15.5917 283.972 19.5123C286.58 23.4328 286.319 26.5692 283.19 28.9216C278.235 33.3648 272.629 39.7684 266.37 48.1322C260.112 56.2347 253.854 65.3827 247.595 75.5761C241.598 85.5081 235.861 95.9629 230.385 106.94C224.909 117.657 220.346 127.85 216.695 137.521C213.305 146.93 211.088 155.294 210.045 162.612C209.263 169.669 210.306 174.635 213.175 177.51C210.567 179.863 207.177 180.777 203.005 180.255C198.833 179.471 194.791 177.641 190.879 174.766C186.968 171.629 183.578 167.709 180.709 163.004C178.102 158.038 177.189 152.549 177.971 146.538C178.754 139.22 180.579 131.117 183.447 122.231C186.577 113.344 189.575 104.457 192.444 95.5709C195.312 86.4229 197.398 77.7977 198.702 69.6953C200.267 61.3314 199.876 54.0131 197.529 47.7402C196.225 44.3424 192.705 43.4276 186.968 44.9958C181.492 46.3026 174.842 49.4391 167.019 54.4051C159.196 59.1098 150.852 65.1213 141.986 72.4396C133.381 79.758 125.297 87.5991 117.735 95.9629C110.173 104.065 103.654 112.299 98.1776 120.662C92.9623 129.026 89.9636 136.475 89.1813 143.009C88.399 149.544 90.7459 155.032 96.2219 159.476C101.959 163.658 109.26 167.84 118.126 172.022C127.253 175.942 137.162 180.124 147.853 184.567C158.544 188.749 168.323 193.977 177.189 200.249C186.316 206.261 193.748 213.841 199.484 222.989C205.221 231.875 207.698 242.983 206.916 256.313C206.655 262.848 204.178 269.904 199.484 277.484C195.051 285.064 189.054 292.644 181.492 300.223C173.93 307.803 165.194 315.121 155.285 322.178C145.376 329.235 134.815 335.508 123.602 340.997C112.389 346.747 100.916 351.452 89.1813 355.111C77.4469 358.77 66.1037 360.992 55.1516 361.776C45.7641 362.299 37.8108 361.907 31.2917 360.6C24.7726 359.293 19.2965 357.333 14.8635 354.719C9.64827 351.321 5.86719 347.139 3.52031 342.173C1.17344 337.207 0 331.718 0 325.707C0 319.434 0.912674 312.9 2.73802 306.104C4.56337 299.309 7.04063 292.513 10.1698 285.717C15.3851 274.478 21.513 263.762 28.5537 253.569C35.855 243.375 43.1564 234.75 50.4578 227.693C51.7616 226.648 53.3262 226.256 55.1516 226.517C56.9769 226.517 58.5415 227.04 59.8453 228.085C61.1491 228.869 61.9314 229.915 62.1922 231.222C62.7137 232.529 62.3226 233.574 61.0188 234.358Z" fill="#C6CBCD"/>
<path d="M416.387 125.759C424.21 129.418 431.12 133.339 437.118 137.521C443.115 141.703 448.331 146.015 452.764 150.458C461.108 159.345 463.716 173.198 460.587 192.016C459.804 196.46 458.37 201.948 456.284 208.483C454.198 215.017 451.59 222.597 448.461 231.222C445.593 239.324 442.724 247.557 439.856 255.921C437.248 264.285 434.771 272.78 432.424 281.405C427.209 299.178 424.601 313.815 424.601 325.315C424.601 337.861 429.295 344.264 438.682 344.526C435.553 350.014 429.686 351.844 421.081 350.014C416.648 348.969 412.345 347.139 408.173 344.526C404.262 341.912 400.35 338.514 396.439 334.332C388.876 325.968 386.269 314.468 388.616 299.831C390.963 290.422 393.831 280.359 397.221 269.643C400.611 258.927 404.653 247.688 409.346 235.926C415.083 220.767 419.516 208.221 422.645 198.289C424.471 192.016 425.644 186.135 426.166 180.647C426.948 174.897 426.687 169.8 425.383 165.357C423.558 156.993 416.257 150.459 403.479 145.754C402.697 168.493 394.613 196.46 379.228 229.654C364.104 263.893 347.415 288.592 329.162 303.752C327.075 305.32 325.511 306.235 324.468 306.496C324.207 306.496 324.077 306.627 324.077 306.888C323.555 307.15 323.164 307.28 322.903 307.28C322.642 307.28 322.251 307.411 321.73 307.672C313.125 310.025 302.564 309.11 290.047 304.928C277.009 299.962 265.926 293.689 256.8 286.109C247.151 278.53 241.545 269.643 239.98 259.45C238.676 229.915 244.935 202.994 258.755 178.686C265.535 166.402 272.315 156.209 279.095 148.106C286.135 140.004 293.437 133.992 300.999 130.072C306.736 126.674 312.473 125.89 318.209 127.719C321.078 128.765 323.946 130.072 326.815 131.64C329.944 133.208 333.334 135.038 336.984 137.129C338.028 137.651 339.071 138.305 340.114 139.089C341.157 139.612 342.2 140.134 343.243 140.657C349.24 144.055 352.239 148.629 352.239 154.379C351.718 159.345 349.762 166.663 346.372 176.334C344.286 181.562 341.809 186.658 338.94 191.624C336.333 196.59 333.203 201.426 329.553 206.13C322.512 216.062 314.168 222.597 304.519 225.733C299.565 227.563 295.132 228.085 291.22 227.301C289.134 226.778 287.048 226.386 284.962 226.125C282.876 225.602 280.79 224.688 278.704 223.381C272.967 242.199 273.488 256.444 280.268 266.115C286.787 275.785 294.219 279.314 302.564 276.7C320.296 269.382 340.635 241.807 363.582 193.977V193.585C364.886 190.709 366.19 187.312 367.494 183.391C368.015 181.3 368.537 179.732 369.058 178.686C369.58 177.38 369.841 176.465 369.841 175.942C376.881 152.419 373.361 136.214 359.28 127.327C355.89 125.236 354.847 121.969 356.151 117.526C357.715 112.821 360.323 108.378 363.974 104.196C368.667 99.7528 372.709 96.747 376.099 95.1788C380.532 93.3492 384.052 94.0026 386.66 97.1391C388.485 100.276 390.05 102.628 391.354 104.196C393.701 108.117 396.439 111.645 399.568 114.782C402.436 117.918 408.043 121.577 416.387 125.759ZM320.947 157.908C319.122 159.214 317.036 161.175 314.689 163.788C312.603 166.141 310.126 169.277 307.257 173.198C304.389 176.595 301.651 180.124 299.043 183.783C296.696 187.181 294.48 190.709 292.394 194.369C287.7 201.948 285.353 206.392 285.353 207.698C291.351 208.483 297.088 205.869 302.564 199.857C304.91 196.982 307.127 193.846 309.213 190.448C311.56 187.05 313.516 183.391 315.08 179.471C316.645 175.289 317.818 171.499 318.601 168.101C319.644 164.442 320.426 161.044 320.947 157.908Z" fill="#C6CBCD"/>
<path d="M548.561 196.721C549.865 194.891 551.429 193.977 553.255 193.977C555.08 193.715 556.644 193.977 557.948 194.761C559.513 195.545 560.686 196.59 561.469 197.897C562.512 199.204 562.642 200.511 561.86 201.818C558.991 207.829 554.819 215.67 549.343 225.341C543.867 235.012 537.869 244.682 531.35 254.353C524.831 264.024 518.051 272.78 511.011 280.621C504.231 288.462 498.103 293.558 492.627 295.911C489.237 297.218 485.325 297.61 480.893 297.087C476.46 296.564 472.287 295.388 468.376 293.558C464.464 291.467 461.205 288.854 458.597 285.717C455.99 282.32 454.816 278.53 455.077 274.348C455.338 269.12 456.511 262.194 458.597 253.569C460.423 244.682 463.03 235.404 466.42 225.733C469.549 215.801 473.07 206.13 476.981 196.721C480.893 187.05 484.934 178.817 489.107 172.022C490.41 169.931 493.018 168.885 496.93 168.885C501.102 168.885 505.144 169.669 509.055 171.237C512.966 172.806 516.226 174.897 518.834 177.51C521.441 180.124 522.093 182.868 520.789 185.743C508.534 209.267 500.189 227.693 495.756 241.023C491.323 254.092 489.889 262.586 491.453 266.507C492.497 269.382 494.713 269.774 498.103 267.683C501.493 265.331 505.665 261.018 510.62 254.745C515.835 248.472 521.702 240.37 528.221 230.438C534.74 220.506 541.52 209.267 548.561 196.721ZM523.919 155.555C522.354 157.646 520.007 158.822 516.878 159.084C514.01 159.345 511.011 159.084 507.882 158.3C505.013 157.254 502.406 155.817 500.059 153.987C497.973 152.157 497.06 150.197 497.321 148.106C497.842 144.447 498.624 140.657 499.668 136.737C500.971 132.555 502.275 128.765 503.579 125.367C504.883 121.708 506.187 118.441 507.49 115.566C508.794 112.691 509.837 110.469 510.62 108.901C512.184 106.548 515.053 105.372 519.225 105.372C523.397 105.111 527.439 105.764 531.35 107.332C535.523 108.901 538.912 110.992 541.52 113.605C544.128 116.219 544.649 118.833 543.085 121.446C542.302 123.015 540.999 125.367 539.173 128.503C537.609 131.379 535.914 134.515 534.088 137.913C532.263 141.049 530.438 144.186 528.612 147.322C526.787 150.459 525.222 153.203 523.919 155.555Z" fill="#C6CBCD"/>
<path d="M656.431 193.585C657.475 192.539 658.778 192.147 660.343 192.408C662.168 192.67 663.863 193.323 665.428 194.369C666.992 195.414 668.166 196.852 668.948 198.681C669.73 200.249 669.6 201.948 668.557 203.778C665.167 213.971 660.343 224.165 654.085 234.358C648.087 244.29 641.177 253.7 633.354 262.586C625.531 271.473 617.317 279.575 608.712 286.894C600.106 294.212 591.632 300.223 583.287 304.928C579.376 307.019 575.204 307.803 570.771 307.28C566.338 306.758 561.905 305.581 557.472 303.752C553.039 301.661 548.997 299.309 545.346 296.695C541.695 294.081 538.697 291.598 536.35 289.246C531.395 284.018 528.657 277.092 528.136 268.467C527.614 259.58 528.657 250.04 531.265 239.847C533.612 229.654 537.262 219.068 542.217 208.091C547.171 197.113 552.647 186.789 558.645 177.118C564.903 167.448 571.422 158.953 578.202 151.635C584.982 144.316 591.371 138.958 597.368 135.56C601.019 133.731 604.409 132.816 607.538 132.816C610.667 132.555 613.927 133.077 617.317 134.384C620.707 135.43 624.097 137.129 627.487 139.481C631.137 141.572 635.179 143.924 639.612 146.538C645.871 150.459 648.739 155.425 648.217 161.436C648.217 164.311 647.044 169.408 644.697 176.726C642.611 184.045 639.482 191.755 635.31 199.857C631.398 207.698 626.444 215.148 620.446 222.205C614.709 229 608.19 233.574 600.889 235.926C595.674 237.233 591.11 237.625 587.199 237.103C583.287 236.58 578.985 235.273 574.291 233.182C572.987 235.796 571.553 239.716 569.988 244.944C568.424 249.91 567.25 255.006 566.468 260.234C565.686 265.461 565.425 270.166 565.686 274.348C565.946 278.268 567.511 280.49 570.379 281.013C574.552 281.797 580.419 279.575 587.981 274.348C595.804 269.12 603.888 262.325 612.232 253.961C620.576 245.336 628.79 235.665 636.874 224.949C644.958 214.233 651.477 203.778 656.431 193.585ZM617.317 164.572C614.709 166.402 611.319 169.931 607.147 175.158C603.236 180.124 599.324 185.482 595.413 191.232C591.762 196.982 588.502 202.34 585.634 207.306C583.026 212.272 581.723 215.409 581.723 216.716C586.416 217.5 590.719 216.062 594.63 212.403C598.803 208.744 602.453 204.17 605.582 198.681C608.972 192.931 611.58 186.92 613.405 180.647C615.492 174.374 616.795 169.016 617.317 164.572Z" fill="#C6CBCD"/>
<path d="M976.679 142.225C980.591 133.6 984.502 124.583 988.414 115.174C992.586 105.503 996.236 96.747 999.366 88.9059C1002.76 81.0648 1005.23 74.6613 1006.8 69.6953C1008.36 64.7292 1008.49 62.3769 1007.19 62.6383C994.672 71.5248 982.155 82.5024 969.639 95.5709C957.122 108.639 944.214 124.583 930.915 143.402C940.042 141.049 947.995 140.004 954.775 140.265C961.816 140.526 969.117 141.18 976.679 142.225ZM963.38 177.902C962.859 175.811 959.86 174.635 954.384 174.374C948.908 173.851 942.649 174.243 935.609 175.55C928.568 176.595 921.528 178.425 914.487 181.039C907.707 183.391 902.492 186.135 898.841 189.272C897.016 191.886 894.278 196.59 890.627 203.386C886.976 210.181 882.935 218.153 878.502 227.301C874.329 236.449 870.027 246.381 865.594 257.097C861.421 267.552 857.901 278.007 855.033 288.462C852.164 298.917 850.209 308.849 849.166 318.258C848.383 327.667 849.296 335.77 851.904 342.565C852.947 344.918 853.077 346.747 852.295 348.054C851.512 349.361 850.339 350.145 848.774 350.406C847.471 350.929 845.906 350.929 844.081 350.406C842.516 350.145 841.212 349.622 840.169 348.838C835.736 344.918 831.564 339.56 827.653 332.764C824.002 325.707 821.785 316.69 821.003 305.712C820.221 294.735 821.525 281.535 824.915 266.115C828.565 250.694 835.736 232.529 846.428 211.619C846.167 211.619 844.081 213.187 840.169 216.324C836.258 219.46 831.955 223.25 827.261 227.693C822.568 232.137 818.265 236.972 814.354 242.199C810.442 247.165 808.356 251.739 808.095 255.921C805.227 257.489 801.967 256.967 798.317 254.353C794.927 251.739 791.928 248.211 789.32 243.768C786.713 239.324 785.018 234.489 784.235 229.261C783.453 223.773 784.496 219.199 787.365 215.54C791.015 210.835 796.882 205.477 804.966 199.465C813.311 193.454 822.177 187.704 831.564 182.215C840.952 176.465 850.078 171.368 858.944 166.925C867.81 162.482 874.72 159.345 879.675 157.515C887.237 145.754 895.712 133.731 905.099 121.446C914.487 108.901 924.266 97.0084 934.435 85.7695C944.605 74.2692 954.775 63.8144 964.945 54.4051C975.115 44.7344 984.763 36.7627 993.89 30.4898C999.626 26.5692 1006.02 24.7396 1013.06 25.001C1020.1 25.2624 1026.35 26.8306 1031.83 29.7057C1037.57 32.5807 1042.13 36.5013 1045.52 41.4673C1048.91 46.172 1049.82 51.2687 1048.26 56.7575C1046.17 63.5531 1043.43 71.7862 1040.04 81.4569C1036.65 90.8662 1033.53 99.23 1030.66 106.548C1023.88 123.537 1016.71 141.703 1009.14 161.044C1001.58 180.385 994.281 199.857 987.24 219.46C980.2 238.801 973.68 257.881 967.683 276.7C961.685 295.519 956.731 312.9 952.819 328.843C951.515 333.548 948.386 336.684 943.432 338.253C938.477 339.821 933.392 340.213 928.177 339.429C922.962 338.645 918.398 336.815 914.487 333.94C910.575 331.065 909.272 327.667 910.575 323.747C917.355 299.439 925.309 275.263 934.435 251.217C943.562 226.909 953.21 202.471 963.38 177.902Z" fill="#C6CBCD"/>
</svg>
