<svg width="999" height="394" fill="none" xmlns="http://www.w3.org/2000/svg"><ellipse cx="499.5" cy="374.5" rx="499.5" ry="19.5" fill="#272951"/><path d="M39.643 355.947l13.892 2.844 21.488 2.659 30.996-.99 16.363-3.214 7.039-2.721c-5.002 12.798-24.019 22.319-46.742 22.319-22.475 0-41.307-9.274-46.556-21.886l3.52.989z" fill="#474A86"/><path d="M38.778 350.445c6.73-3.4 23.896-5.873 43.901-5.873 20.067 0 37.171 2.411 43.901 5.873h3.087v3.277c0 5.007-21.055 9.088-46.988 9.088-25.995 0-46.988-4.081-46.988-9.088v-3.277h3.087z" fill="#E96830"/><path d="M82.68 359.533c-25.952 0-46.99-4.069-46.99-9.088 0-5.019 21.038-9.088 46.99-9.088 25.95 0 46.987 4.069 46.987 9.088 0 5.019-21.037 9.088-46.988 9.088z" fill="#FA7C44"/><path opacity=".19" d="M85.026 354.031c-16.062 0-29.082-1.855-29.082-4.142 0-2.288 13.02-4.143 29.082-4.143 16.061 0 29.082 1.855 29.082 4.143 0 2.287-13.021 4.142-29.082 4.142z" fill="#475B53"/><path d="M85.025 253.504l.618 10.819 1.605 29.119 2.717 48.966-1.358 6.8h21.178c0-.803-.494-1.483-1.235-1.731-4.754-1.731-6.668-5.007-6.668-5.007l2.346-48.966 1.42-29.119.494-10.82H85.025v-.061z" fill="#FFB9A1"/><path d="M87.248 293.443l.432 7.913.433 7.666.432 8.099.494 9.027.926 16.26-1.358 6.801h21.178c0-.804-.494-1.484-1.235-1.732-4.754-1.731-6.668-5.007-6.668-5.007l.37-8.099.371-8.099.432-9.027.371-8.099.37-7.666.371-7.914H87.248v-.123z" fill="#3A3A3A"/><path d="M90.027 342.47l-1.358 6.8h21.178c0-.803-.494-1.483-1.235-1.731-4.754-1.731-6.668-5.008-6.668-5.008l.37-8.099H89.533l.494 8.038z" fill="#7AAEDD"/><path d="M85.026 253.504l.617 10.819h20.067l.494-10.819H85.026z" fill="#EFA28E"/><path d="M56.19 259.81l.495 8.593 1.481 25.039 2.964 48.966-1.358 6.8H80.95c0-.803-.493-1.483-1.234-1.731-4.755-1.731-6.669-5.008-6.669-5.008l2.532-48.965 1.296-25.039.433-8.594H56.19v-.061z" fill="#FFB9A1"/><path d="M58.228 293.443l.494 7.913.432 7.666.494 8.099.556 9.027.988 16.26-1.359 6.801h21.18c0-.804-.495-1.484-1.236-1.732-4.754-1.731-6.668-5.007-6.668-5.007l.432-8.099.432-8.099.494-9.027.432-8.099.37-7.666.433-7.914H58.228v-.123z" fill="#3A3A3A"/><path d="M59.772 349.208H80.95c0-.803-.493-1.483-1.234-1.731-4.755-1.731-6.669-5.007-6.669-5.007l.432-8.1H60.636l.494 8.1-1.358 6.738z" fill="#7AAEDD"/><path d="M56.19 259.81l.494 8.593h20.253l.432-8.593H56.19z" fill="#EFA28E"/><path d="M117.812 128.432s.247 1.422.618 3.833c.123.865.308 1.855.432 2.967 2.223 14.22 6.977 47.235 7.224 66.277.062 3.956-.062 7.295-.494 9.768-.247 1.607-.617 2.782-1.111 3.586-3.087 4.698-3.334 6.553-2.84 7.233 0 .062.061.062.061.062.494.557 1.606.124 1.606.124-.556 6.182 1.358 8.099 3.396 8.47 2.222.371 4.384-1.051 5.063-3.153a126.137 126.137 0 004.075-16.322 139.132 139.132 0 001.482-9.768c3.272-26.894-.185-52.922-2.593-66.277a67.998 67.998 0 00-.556-2.967c-.803-4.019-1.359-6.306-1.359-6.306l-10.99 1.793-4.014.68z" fill="#FFB9A1"/><path d="M117.812 128.432s.433 2.534 1.112 6.8h15.93c-1.05-5.873-1.914-9.273-1.914-9.273l-15.128 2.473z" fill="#EFA28E"/><path d="M104.784 79.59v52.675h30.502c-.803-2.164-1.605-4.328-2.408-6.306-.123-.371-.247-.68-.37-.989-6.113-15.518-11.3-25.781-15.499-32.458-1.481-2.412-2.902-4.328-4.136-5.936-5.249-6.8-8.089-6.986-8.089-6.986z" fill="#709FC9"/><path d="M104.784 124.908v7.357h30.502c-.926-2.535-1.852-5.008-2.778-7.295h-27.724v-.062z" fill="#fff"/><path opacity=".24" d="M112.935 86.514l-7.348 45.751h12.843c.123.865.309 1.855.432 2.967 2.223 14.22 6.977 47.235 7.224 66.277.062 3.956-.061 7.295-.494 9.768-.247 1.607-.617 2.782-1.111 3.586-3.087 4.699-3.334 6.553-2.84 7.233l.061.062c.433-.185 10.003-4.204 7.533-33.076-1.049-12.612-3.89-35.178-6.792-56.817-.185-1.484-.432-3.03-.617-4.513-1.791-13.231-3.52-25.843-4.878-35.302l-4.013-5.936z" fill="#AAA"/><path d="M18.402 201.509c.432 3.276.926 6.491 1.544 9.768 1.05 5.379 2.346 10.696 4.013 15.951.68 2.102 2.84 3.586 5.063 3.153 2.038-.371 3.952-2.288 3.396-8.47 0 0 4.94 1.793-1.111-7.419-.432-.68-.803-1.731-1.05-3.153-.432-2.411-.617-5.75-.556-9.769.186-18.794 4.94-51.747 7.163-66.276a273.2 273.2 0 011.173-7.233l-15.127-2.473s-.865 3.585-1.976 9.706c-2.532 13.478-5.866 39.444-2.532 66.215z" fill="#FFB9A1"/><path d="M20.872 135.232h15.93a273.2 273.2 0 011.173-7.233l-15.127-2.473s-.926 3.586-1.976 9.706z" fill="#EFA28E"/><path d="M39.025 99.374v109.863h78.787V101.662c0-12.304-8.582-22.628-20.067-25.287-1.914-.433-3.828-.68-5.866-.68H62.674c-7.595 0-14.325 3.586-18.647 9.15a23.516 23.516 0 00-5.002 14.529z" fill="#7AAEDD"/><path d="M68.663 78.539c0 8.285 6.545 15.023 14.634 15.023 8.088 0 14.633-6.738 14.633-15.023 0-.742-.061-1.484-.123-2.164-1.914-.433-3.828-.68-5.866-.68h-23.03c-.186.927-.248 1.917-.248 2.844z" fill="#fff"/><path d="M107.748 45.957a6.487 6.487 0 01-6.483-6.491 6.487 6.487 0 016.483-6.492 6.488 6.488 0 016.483 6.492 6.488 6.488 0 01-6.483 6.491z" fill="#ED9B85"/><path d="M108.057 42.928c-.309 0-.618-.062-.927-.124v-6.677c.309-.062.618-.124.927-.124a3.454 3.454 0 013.457 3.463c.062 1.916-1.543 3.462-3.457 3.462z" fill="#AF6152"/><path d="M84.902 23.206s4.199-13.973 16.98-13.973 9.2 24.73 9.2 24.73-.803 4.143-3.396 5.008c-1.667.557-2.037-2.35-2.037-4.513-7.904-2.102-20.747-11.252-20.747-11.252z" fill="#3A3A3A"/><path d="M70.886 65.927v12.488c0 6.925 5.619 12.49 12.473 12.49 4.26 0 8.026-2.103 10.25-5.38a12.297 12.297 0 002.222-7.11V65.927H70.886z" fill="#FFB9A1"/><path d="M65.637 27.843v29.18c0 4.638 2.038 8.78 5.249 11.562 2.717 2.35 6.236 3.771 10.064 3.771h11.423c1.173 0 2.346-.123 3.458-.37 2.346-.557 4.507-1.608 6.298-3.154a15.23 15.23 0 005.557-11.808V27.843c0-2.783-.741-5.38-2.038-7.605-2.655-4.637-7.594-7.728-13.337-7.728H80.888a15.2 15.2 0 00-7.409 1.917c-4.63 2.596-7.842 7.666-7.842 13.416z" fill="#FFB9A1"/><path d="M102.191 48.925v19.97a15.23 15.23 0 005.557-11.81v-29.18c0-2.783-.741-5.38-2.038-7.605v20.278c0 1.237-.432 2.473-1.235 3.4l-1.049 1.3a5.911 5.911 0 00-1.235 3.647zM65.638 27.843v29.181c0 4.637 2.037 8.78 5.248 11.561v9.398c0 7.048 5.804 13.045 12.843 12.86a12.463 12.463 0 009.88-5.38c-10.189 2.906-12.165-4.142-12.165-4.142v-31.84c0-1.854-1.05-3.524-2.655-4.39l-2.346-1.236c-1.729-.927-2.84-2.72-2.84-4.698V14.303c-4.755 2.72-7.965 7.79-7.965 13.54z" fill="#EFA28E"/><path d="M92.373 43.67h2.47c1.729 0 3.026-1.608 2.655-3.277l-1.235-5.997c-.247-1.298-1.358-2.164-2.655-2.164a2.715 2.715 0 00-2.655 2.164l-1.235 5.997c-.37 1.67.926 3.277 2.655 3.277z" fill="#E86464"/><path d="M82.74 36.56a2.162 2.162 0 01-2.16-2.164 2.162 2.162 0 114.322 0 2.163 2.163 0 01-2.161 2.164zm17.29 0a2.163 2.163 0 01-2.161-2.164c0-1.195.967-2.164 2.161-2.164 1.193 0 2.161.969 2.161 2.164a2.163 2.163 0 01-2.161 2.164z" fill="#302B2A"/><path d="M97.621 49.358s-4.877 8.717-11.608 0h11.608z" fill="#E09480"/><path d="M87.002 45.4a7.843 7.843 0 012.408-.37h4.816c.74 0 1.482.124 2.16.309a7.972 7.972 0 015.805 7.666V67.72c0 4.39-3.581 7.975-7.965 7.975H89.47c-4.384 0-7.965-3.586-7.965-7.975V53.005a7.944 7.944 0 015.496-7.604zm9.755 7.11c0-1.112-.926-2.04-2.037-2.04h-5.928c-1.173 0-2.1.928-2.1 2.04v8.47h1.853c.68 0 1.235-.432 1.482-1.05l1.544-4.204a.929.929 0 01.864-.619c.432 0 .803.31.926.68l1.112 4.266c.185.68.802 1.175 1.543 1.175h.68v-8.717h.061z" fill="#3A3A3A"/><path d="M88.73 45.895h5.928c1.173 0 2.038.928 2.038 2.04v4.514c0-1.113-.927-2.04-2.038-2.04H88.73c-1.173 0-2.099.927-2.099 2.04v-4.513c.062-1.113.988-2.04 2.1-2.04zm.741 25.287h4.755c4.384 0 7.965-3.586 7.965-7.976v4.513c0 4.39-3.581 7.976-7.965 7.976H89.47c-4.384 0-7.965-3.586-7.965-7.975v-4.514a7.95 7.95 0 007.965 7.976z" fill="#2D2D2D"/><path d="M87.372 29.574a16.465 16.465 0 00-9.88.062 1.342 1.342 0 01-1.728-1.299v-.927c0-.618.432-1.175.988-1.299 1.728-.494 5.742-1.174 11.299.062.617.124 1.05.68 1.05 1.299v.742c.061.989-.803 1.607-1.73 1.36zm18.277 0a16.464 16.464 0 00-9.88.062 1.342 1.342 0 01-1.729-1.299v-.927c0-.618.433-1.175.988-1.299 1.73-.494 5.743-1.174 11.3.062.617.124 1.049.68 1.049 1.299v.742c.062.989-.864 1.607-1.728 1.36z" fill="#3A3A3A"/><path opacity=".24" d="M39.025 99.374v109.863h78.787c-67.61 0-63.103-18.486-63.103-18.486v-76.539c0-33.88-10.682-29.429-10.682-29.429-3.15 4.08-5.002 9.15-5.002 14.591z" fill="#848484"/><path d="M19.884 131.832H53.04s.124-2.72.185-6.924c.062-6.801-.123-17.497-1.543-26.709 0 0-2.47-25.966-14.202-6.12-7.965 13.539-12.966 25.471-15.498 32.829-1.173 3.462-1.852 5.873-2.1 6.924z" fill="#7AAEDD"/><path d="M61.069 18.94v15.95c1.173-1.174 2.778-1.916 4.569-1.916a6.487 6.487 0 016.483 6.491v-7.604c0-1.855 1.42-3.4 3.272-3.462 4.446-.248 8.15-.866 11.238-1.793 15.807-4.884 15.683-17.868 15.004-22.937-.185-1.175-1.173-2.102-2.408-2.102H78.42c-2.902 0-5.619.68-8.027 1.978l-.37.186a17.295 17.295 0 00-7.472 8.099 17.622 17.622 0 00-1.481 7.11z" fill="#494949"/><path d="M64.65 33.036c.308-.062.617-.062.926-.062.988 0 1.852.804 1.852 1.793v9.336c0 .989-.74 1.792-1.729 1.792-3.457 0-6.298-2.72-6.483-6.182-.185-3.215 2.223-6.12 5.434-6.677z" fill="#FFB9A1"/><path d="M64.588 35.942c.309 0 .617.062.926.123v6.677c-.309.062-.617.124-.926.124a3.454 3.454 0 01-3.458-3.462c-.062-1.855 1.482-3.462 3.458-3.462z" fill="#AF6152"/><path d="M61.068 18.94v15.95c1.173-1.174 2.779-1.916 4.57-1.916a6.487 6.487 0 016.483 6.492V31.86c0-1.855 1.42-3.4 3.272-3.462 4.446-.247 8.15-.866 11.238-1.793-.68.186-14.757 3.833-19.635-.433-3.211-2.844-6.113-8.84-4.384-14.405a17.164 17.164 0 00-1.544 7.172zm64.524 192.337h10.312a139.132 139.132 0 001.482-9.768h-11.3c.062 3.956-.062 7.357-.494 9.768z" fill="#3A3A3A"/><path d="M21.983 124.908c-1.173 3.4-1.852 5.811-2.099 6.924h33.157s.124-2.72.186-6.924" fill="#fff"/><path d="M18.402 201.509a178.39 178.39 0 001.544 9.768h10.311c-.432-2.411-.617-5.75-.555-9.768h-11.3zm70.267 147.699h21.178c0-.803-.494-1.483-1.235-1.731a16.938 16.938 0 01-2.593-1.236c-.309-.186-.556-.309-.803-.495-.123-.123-.247-.185-.37-.309a6.532 6.532 0 01-.679-.556c-.124-.124-.247-.186-.371-.309a6.143 6.143 0 00-.679-.619c-.803-.865-1.173-1.483-1.173-1.483s-.741-1.608-1.297-.928c-.555.742.618 3.277-3.21 3.277-3.829 0-6.546-.928-7.41-2.349l-1.358 6.738z" fill="#3A3A3A"/><path d="M88.669 349.146h21.363v.928H88.669v-.928z" fill="#D13E37"/><path d="M104.537 346.488l.679.618.803-.865c-.309-.186-.556-.309-.803-.495l-.679.742zm-1.05-.927l.68.618.741-.742a6.657 6.657 0 01-.68-.556l-.741.68zm-.987-.928l.679.619.679-.68a6.143 6.143 0 00-.679-.619l-.679.68z" fill="#fff"/><path d="M59.772 349.208h21.302c0-.803-.494-1.483-1.235-1.731a16.947 16.947 0 01-2.593-1.236c-.31-.186-.556-.309-.803-.495-.123-.123-.247-.185-.37-.309a6.557 6.557 0 01-.68-.556c-.123-.124-.247-.186-.37-.309a6.144 6.144 0 00-.68-.619c-.802-.865-1.173-1.483-1.173-1.483s-.74-1.608-1.296-.928c-.556.742.617 3.277-3.211 3.277s-6.607-.928-7.471-2.349l-1.42 6.738z" fill="#3A3A3A"/><path d="M59.772 349.146h21.487v.928H59.772v-.928z" fill="#D13E37"/><path d="M75.702 346.488l.68.618.864-.865c-.31-.186-.556-.309-.803-.495l-.741.742zm-1.05-.927l.68.618.74-.742a6.557 6.557 0 01-.679-.556l-.74.68zm-.988-.928l.68.619.679-.68a6.144 6.144 0 00-.68-.619l-.679.68z" fill="#fff"/><path d="M88.607 317.183l.494 9.027h13.645l.433-9.027H88.607zm-28.959 0l.494 9.027h13.77l.493-9.027H59.648zm28.032-15.827l.433 7.666h15.436l.371-7.666H87.68z" fill="#7AAEDD"/><path opacity=".46" d="M85.025 253.504l.618 10.819 1.605 29.119 2.779 49.028-1.359 6.738h5.496l-3.026-95.704h-6.113z" fill="#AAA"/><path d="M117.812 209.237s-.988 28.439-3.704 49.645h-35.69v-49.645h39.394z" fill="#C4C5C6"/><path d="M58.66 301.356l.494 7.666h15.684l.37-7.666H58.66z" fill="#7AAEDD"/><path d="M39.025 209.237s-.432 25.966 5.619 50.573H83.42l5.434-50.573H39.025z" fill="#E6EBEF"/><path d="M64.526 253.503c-3.99 0-7.224-3.238-7.224-7.233 0-3.995 3.234-7.234 7.224-7.234s7.224 3.239 7.224 7.234-3.234 7.233-7.224 7.233z" fill="#FFDB94"/><path d="M117.384 112.063v8.789H91.943v-8.789h25.441zm-39.781 0v8.789H52.16v-8.789h25.442z" fill="#2D2D2D"/><path d="M97.326 119.341a2.775 2.775 0 100-5.55 2.775 2.775 0 000 5.55z" fill="#FFDB94"/><path opacity=".24" d="M382.373 86.514l-7.347 45.751h12.843c.123.865.308 1.855.432 2.967 2.223 14.22 6.977 47.235 7.224 66.277.062 3.956-.062 7.295-.494 9.768-.247 1.607-.617 2.782-1.111 3.586-3.087 4.699-3.334 6.553-2.84 7.233l.061.062c.432-.185 10.003-4.204 7.533-33.076-1.049-12.612-3.89-35.178-6.792-56.817-.185-1.484-.432-3.03-.617-4.513-1.791-13.231-3.52-25.843-4.878-35.302l-4.014-5.936z" fill="#AAA"/><path d="M309.082 355.453l13.892 2.844 21.488 2.658 30.996-.989 16.362-3.215 7.101-2.72c-5.001 12.798-24.019 22.319-46.741 22.319-22.475 0-41.308-9.274-46.556-21.886l3.458.989z" fill="#474A86"/><path d="M308.217 349.95c6.73-3.4 23.896-5.873 43.901-5.873 20.067 0 37.171 2.411 43.901 5.873h3.087v3.277c0 5.008-21.055 9.088-46.988 9.088-25.995 0-46.988-4.08-46.988-9.088v-3.277h3.087z" fill="#E96830"/><path d="M352.118 359.039c-25.951 0-46.988-4.069-46.988-9.089 0-5.019 21.037-9.088 46.988-9.088s46.988 4.069 46.988 9.088c0 5.02-21.037 9.089-46.988 9.089z" fill="#FA7C44"/><path opacity=".19" d="M354.464 353.536c-16.061 0-29.082-1.854-29.082-4.142 0-2.288 13.021-4.142 29.082-4.142 16.062 0 29.082 1.854 29.082 4.142 0 2.288-13.02 4.142-29.082 4.142z" fill="#475B53"/><path d="M354.464 253.009l.618 10.819 1.605 29.12 2.717 48.965-1.358 6.801h21.178a1.8 1.8 0 00-1.235-1.731c-4.754-1.731-6.668-5.008-6.668-5.008l2.346-48.966 1.42-29.119.494-10.819h-21.117v-.062z" fill="#FFB9A1"/><path d="M356.687 292.948l.432 7.913v.062l.433 7.419v.186l.37 6.8.062 1.299.309 6.059.185 2.967.247 4.019.432 7.419.247 4.822-1.358 6.801h21.178a1.8 1.8 0 00-1.235-1.731c-4.754-1.731-6.668-5.008-6.668-5.008l.247-4.822.185-3.277.185-4.081.186-4.018.123-2.968.309-6.059.061-1.298.309-6.801v-.185l.371-7.419v-.062l.37-7.914h-16.98v-.123z" fill="#3A3A3A"/><path d="M371.938 329.734h-13.213l.432 7.357h12.473l.123-3.277.185-4.08zm.741-14.406h-14.757l.124 1.299.308 6.059h13.955l.309-6.059.061-1.299zm.68-14.405h-16.24l.433 7.419h15.436l.371-7.419z" fill="#496E8C"/><path d="M354.464 253.009l.618 10.819h20.067l.494-10.819h-21.179z" fill="#EFA28E"/><path d="M325.629 259.315l.494 8.594 1.482 25.039 2.964 48.965-1.359 6.801h21.179a1.8 1.8 0 00-1.235-1.731c-4.754-1.731-6.668-5.008-6.668-5.008l2.531-48.965 1.297-25.04.432-8.593h-21.117v-.062z" fill="#FFB9A1"/><path d="M327.667 292.948l.494 7.913v.062l.432 7.419v.186l.432 6.8.062 1.299.309 6.059.185 2.967.247 4.019.432 7.419.309 4.822-1.359 6.801h21.179a1.8 1.8 0 00-1.235-1.731c-4.754-1.731-6.668-5.008-6.668-5.008l.247-4.822.185-3.277.185-4.081.185-4.018.186-2.968.308-6.059.062-1.298.371-6.801v-.185l.37-7.419v-.062l.432-7.914h-17.35v-.123z" fill="#3A3A3A"/><path d="M325.629 259.315l.494 8.594h20.253l.432-8.594h-21.179z" fill="#EFA28E"/><path d="M387.251 128.432s.247 1.422.618 3.833c.123.865.308 1.855.432 2.967 2.223 14.22 6.977 47.235 7.224 66.277.062 3.956-.062 7.295-.494 9.768-.247 1.607-.617 2.782-1.111 3.586-3.088 4.699-3.335 6.553-2.841 7.233 0 .062.062.062.062.062.494.557 1.605.124 1.605.124-.555 6.182 1.359 8.099 3.396 8.47 2.223.371 4.384-1.051 5.064-3.153a126.3 126.3 0 004.075-16.322 139.132 139.132 0 001.482-9.768c3.272-26.894-.186-52.922-2.594-66.277a66.637 66.637 0 00-.555-2.967c-.803-4.019-1.359-6.306-1.359-6.306l-10.99 1.793-4.014.68z" fill="#FFB9A1"/><path d="M387.251 128.432s.432 2.534 1.112 6.8h15.93c-1.05-5.873-1.914-9.273-1.914-9.273l-15.128 2.473z" fill="#EFA28E"/><path d="M287.841 201.509c.432 3.276.926 6.491 1.544 9.768 1.049 5.379 2.346 10.696 4.013 15.951.679 2.102 2.84 3.586 5.063 3.153 2.038-.371 3.952-2.288 3.396-8.47 0 0 4.94 1.793-1.111-7.419-.433-.68-.803-1.731-1.05-3.153-.432-2.411-.617-5.75-.556-9.769.186-18.794 4.94-51.747 7.163-66.276a268.04 268.04 0 011.173-7.233l-15.128-2.473s-.864 3.585-1.976 9.706c-2.531 13.478-5.865 39.444-2.531 66.215z" fill="#FFB9A1"/><path d="M290.311 135.232h15.93a268.04 268.04 0 011.173-7.233l-15.127-2.473s-.927 3.586-1.976 9.706z" fill="#EFA28E"/><path d="M395.031 211.277h10.312a138.536 138.536 0 001.481-9.768h-11.299c.062 3.956-.062 7.357-.494 9.768zm-107.19-9.768c.432 3.276.926 6.491 1.544 9.768h10.311c-.432-2.411-.617-5.75-.556-9.768h-11.299z" fill="#3A3A3A"/><path d="M358.107 348.714h21.179a1.8 1.8 0 00-1.235-1.731 16.937 16.937 0 01-2.593-1.237c-.309-.185-.556-.309-.803-.494-.124-.124-.247-.186-.37-.309-.247-.186-.494-.371-.68-.557-.123-.124-.247-.185-.37-.309-.247-.247-.432-.433-.679-.618-.803-.866-1.174-1.484-1.174-1.484s-.74-1.607-1.296-.927c-.556.742.617 3.276-3.211 3.276s-6.545-.927-7.409-2.349l-1.359 6.739z" fill="#496E8C"/><path d="M358.107 348.652h21.364v.927h-21.364v-.927z" fill="#fff"/><path d="M373.914 345.932l.679.618.803-.866c-.309-.185-.556-.309-.803-.494l-.679.742zm-1.049-.866l.679.618.741-.742a6.657 6.657 0 01-.68-.556l-.74.68zm-.989-.927l.68.618.679-.68c-.247-.247-.432-.433-.679-.618l-.68.68z" fill="#3A3A3A"/><path d="M329.211 348.714h21.302a1.8 1.8 0 00-1.235-1.731 16.95 16.95 0 01-2.594-1.237c-.308-.185-.555-.309-.802-.494-.124-.124-.247-.186-.371-.309-.247-.186-.494-.371-.679-.557-.123-.124-.247-.185-.37-.309-.247-.247-.433-.433-.68-.618-.802-.866-1.173-1.484-1.173-1.484s-.741-1.607-1.296-.927c-.556.742.617 3.276-3.211 3.276s-6.607-.927-7.471-2.349l-1.42 6.739z" fill="#496E8C"/><path d="M329.21 348.652h21.488v.927H329.21v-.927z" fill="#fff"/><path d="M345.141 345.932l.679.618.864-.866c-.309-.185-.556-.309-.802-.494l-.741.742zm-1.05-.866l.679.618.679-.742a6.532 6.532 0 01-.679-.556l-.679.68zm-.988-.927l.679.618.679-.68c-.247-.247-.432-.433-.679-.618l-.679.68z" fill="#3A3A3A"/><path opacity=".46" d="M354.464 253.009l.618 10.819 1.605 29.12 2.717 48.965-1.297 6.801h5.496l-3.026-95.705h-6.113z" fill="#AAA"/><path d="M387.251 208.742s-.988 28.44-3.704 49.646h-35.689v-49.646h39.393z" fill="#2D2D2D"/><path d="M308.464 208.742s-.432 25.967 5.619 50.573h38.776l5.433-50.573h-49.828z" fill="#3A3A3A"/><path d="M374.223 79.59v52.675h30.502c-.803-2.164-1.605-4.328-2.408-6.306-.124-.371-.247-.68-.371-.989-6.112-15.518-11.299-25.781-15.498-32.459-1.482-2.41-2.902-4.327-4.137-5.935-5.248-6.8-8.088-6.986-8.088-6.986z" fill="#395B72"/><path d="M308.464 99.374v109.863h78.787V101.661c0-4.266-1.049-8.284-2.84-11.808-3.211-6.244-8.83-11.005-15.683-13.045-.494-.186-1.05-.31-1.544-.433-1.914-.433-3.828-.68-5.866-.68h-29.205c-3.767 0-7.348.866-10.497 2.473a23.802 23.802 0 00-8.15 6.677c-.865 1.113-1.606 2.288-2.285 3.524a23.596 23.596 0 00-2.717 11.005z" fill="#496E8C"/><path d="M321.616 78.168v131.069h15.683V75.695h-5.125c-3.828 0-7.409.927-10.558 2.473zm-13.152 21.206v109.863h2.717V88.369a23.596 23.596 0 00-2.717 11.005zm37.232-16.569h15.684v126.432h-15.684V82.805z" fill="#3A3A3A"/><path opacity=".24" d="M308.464 99.374v109.863h78.787c-67.611 0-63.103-18.486-63.103-18.486v-76.539c0-33.88-10.682-29.429-10.682-29.429-3.149 4.08-5.002 9.15-5.002 14.591z" fill="#848484"/><path d="M289.323 131.832h33.157s.124-2.72.185-6.924c.062-6.801-.123-17.497-1.543-26.709 0 0-2.47-25.966-14.202-6.12-7.965 13.539-12.966 25.471-15.498 32.829-1.235 3.462-1.852 5.873-2.099 6.924z" fill="#496E8C"/><path d="M368.728 76.808v132.429h15.683V89.853c-3.211-6.244-8.83-11.005-15.683-13.045zm-30.688 1.731c0 8.284 6.545 15.023 14.634 15.023 8.088 0 14.633-6.739 14.633-15.023 0-.742-.061-1.484-.123-2.164-1.914-.433-3.828-.68-5.866-.68h-22.969c-.185.927-.309 1.917-.309 2.844z" fill="#3A3A3A"/><path d="M376.459 121.384a6.55 6.55 0 01-6.545-6.554 6.549 6.549 0 016.545-6.553 6.55 6.55 0 016.545 6.553c0 3.619-2.931 6.554-6.545 6.554z" fill="#DFEAF2"/><path d="M377.187 44.783a6.488 6.488 0 01-6.484-6.492 6.488 6.488 0 016.484-6.492 6.488 6.488 0 016.483 6.492 6.488 6.488 0 01-6.483 6.492z" fill="#ED9B85"/><path d="M377.496 41.753c-.309 0-.618-.062-.927-.123v-6.678c.309-.061.618-.123.927-.123a3.454 3.454 0 013.457 3.462 3.454 3.454 0 01-3.457 3.462z" fill="#AF6152"/><path d="M354.341 22.031s4.199-13.972 16.98-13.972 9.2 24.73 9.2 24.73-.803 4.142-3.396 5.007c-1.667.557-2.038-2.349-2.038-4.513-7.965-2.102-20.746-11.252-20.746-11.252z" fill="#AD701F"/><path d="M340.325 64.752v12.489c0 6.924 5.618 12.488 12.472 12.488 4.261 0 8.027-2.102 10.25-5.379a12.299 12.299 0 002.223-7.11V64.753h-24.945z" fill="#FFB9A1"/><path d="M335.076 26.73v29.18c0 4.637 2.038 8.78 5.249 11.561 2.717 2.35 6.236 3.772 10.064 3.772h11.423a16.02 16.02 0 003.458-.371c2.346-.557 4.507-1.608 6.298-3.153a15.23 15.23 0 005.557-11.809V26.73a15.05 15.05 0 00-2.038-7.605c-2.655-4.636-7.594-7.728-13.337-7.728h-11.361a15.2 15.2 0 00-7.409 1.917c-4.693 2.535-7.904 7.604-7.904 13.416z" fill="#FFB9A1"/><path d="M371.63 47.75v19.97a15.23 15.23 0 005.557-11.809V26.73c0-2.782-.741-5.38-2.038-7.605v20.279c0 1.236-.432 2.473-1.235 3.4l-1.05 1.298a6.049 6.049 0 00-1.234 3.648zm-36.554-21.02v29.18c0 4.637 2.038 8.78 5.249 11.561v9.398c0 7.048 5.804 13.045 12.843 12.86a12.462 12.462 0 009.879-5.38c-10.188 2.906-12.164-4.142-12.164-4.142v-31.84c0-1.854-1.05-3.524-2.655-4.39l-2.346-1.236c-1.729-.927-2.841-2.72-2.841-4.698V13.19c-4.754 2.659-7.965 7.728-7.965 13.54z" fill="#EFA28E"/><path d="M352.18 35.385a2.162 2.162 0 01-2.161-2.164 2.162 2.162 0 114.322 0 2.163 2.163 0 01-2.161 2.164zm17.289 0a2.163 2.163 0 010-4.327 2.163 2.163 0 010 4.328z" fill="#302B2A"/><path d="M358.91 70.007h4.754c4.384 0 7.966-3.586 7.966-7.975v4.513c0 4.39-3.582 7.975-7.966 7.975h-4.754c-4.384 0-7.965-3.585-7.965-7.975v-4.513c0 4.451 3.519 7.975 7.965 7.975zm-2.099-41.608c-2.038-.618-5.619-1.298-9.88.062a1.341 1.341 0 01-1.728-1.299v-.927c0-.618.432-1.175.987-1.298 1.729-.495 5.743-1.175 11.3.062.617.123 1.05.68 1.05 1.298v.742c.061.989-.865 1.607-1.729 1.36zm18.276 0c-2.037-.618-5.618-1.298-9.879.062a1.342 1.342 0 01-1.729-1.299v-.927c0-.618.433-1.175.988-1.298 1.729-.495 5.743-1.175 11.3.062.617.123 1.049.68 1.049 1.298v.742c.062.989-.864 1.607-1.729 1.36z" fill="#663D0C"/><path d="M330.507 17.765v15.951c1.173-1.175 2.779-1.917 4.569-1.917a6.487 6.487 0 016.484 6.492v-7.604c0-1.855 1.42-3.4 3.272-3.463 4.446-.247 8.15-.865 11.238-1.793 15.807-4.884 15.683-17.867 15.004-22.937-.185-1.174-1.173-2.102-2.408-2.102h-20.747c-2.902 0-5.619.68-8.027 1.979l-.37.185a17.289 17.289 0 00-7.471 8.1c-.988 2.101-1.544 4.574-1.544 7.11z" fill="#CC8A2B"/><path d="M334.088 31.923c.309-.062.618-.062.927-.062.988 0 1.852.804 1.852 1.793v9.336c0 .989-.741 1.792-1.729 1.792-3.458 0-6.298-2.72-6.483-6.182-.185-3.277 2.223-6.183 5.433-6.677z" fill="#FFB9A1"/><path d="M333.965 34.829c.308 0 .617.062.926.123v6.678c-.309.061-.618.123-.926.123a3.455 3.455 0 01-3.458-3.462 3.455 3.455 0 013.458-3.462z" fill="#AF6152"/><path d="M330.507 17.765v15.95c1.173-1.174 2.779-1.916 4.569-1.916a6.487 6.487 0 016.484 6.492v-7.604c0-1.855 1.42-3.4 3.272-3.463 4.446-.247 8.15-.865 11.238-1.793-.679.186-14.757 3.834-19.635-.432-3.211-2.844-6.113-8.841-4.384-14.406a17.376 17.376 0 00-1.544 7.172z" fill="#AD701F"/><path d="M356.873 54.798c1.605 1.917 5.063 4.76 9.57.062.494-.495.124-1.298-.556-1.298h-8.459c-.617 0-.988.742-.555 1.236zm-3.335-3.895c-1.261 0-2.284-.775-2.284-1.73 0-.957 1.023-1.732 2.284-1.732 1.262 0 2.285.775 2.285 1.731 0 .956-1.023 1.731-2.285 1.731zm15.436 0c-1.261 0-2.284-.775-2.284-1.731 0-.956 1.023-1.731 2.284-1.731 1.262 0 2.285.775 2.285 1.731 0 .956-1.023 1.731-2.285 1.731z" fill="#E09480"/><path d="M352.674 48.616s1.111 1.298 2.717 2.72c1.975 1.793 4.692 3.833 6.853 3.833 1.359 0 2.655-.865 3.705-1.916 1.852-1.979 3.087-4.637 3.087-4.637s-.741.185-2.161.432c-2.161.31-5.804.557-10.682.062-1.173-.123-2.346-.247-3.519-.494z" fill="#212121"/><path d="M356.131 49.11v.371c0 .557.433 1.051 1.05 1.051h8.644a1.04 1.04 0 001.05-1.05v-.434c-2.223.31-5.866.557-10.744.062z" fill="#fff"/><path d="M355.39 51.398c1.976 1.793 4.693 3.833 6.854 3.833 1.359 0 2.655-.866 3.705-1.917-1.235-1.112-4.075-2.225-10.559-1.916z" fill="#D64D4D"/><path d="M361.565 43.731l-2.47-3.585h7.965l-2.469 3.585a1.846 1.846 0 01-3.026 0z" fill="#EFA28E"/><path d="M361.812 42.495h2.47c1.729 0 3.026-1.607 2.655-3.277l-1.235-5.997c-.247-1.298-1.358-2.163-2.655-2.163a2.716 2.716 0 00-2.655 2.163l-1.235 5.997c-.37 1.67.926 3.277 2.655 3.277z" fill="#E86464"/><path d="M336.188 252.947a6.549 6.549 0 01-6.545-6.553 6.55 6.55 0 016.545-6.554 6.55 6.55 0 016.545 6.554 6.55 6.55 0 01-6.545 6.553z" fill="#DFEAF2"/><path d="M329.828 329.734l.432 7.357h12.534l.124-3.277.247-4.08h-13.337zm-.864-14.406l.123 1.299.309 6.059h14.139l.309-6.059.062-1.299h-14.942zm-.865-14.405l.494 7.419h15.683l.371-7.419h-16.548z" fill="#496E8C"/><path d="M830.766 355.966l-13.893 2.844-21.487 2.658-30.996-.989-16.363-3.215-7.101-2.72c5.002 12.798 24.019 22.319 46.742 22.319 22.475 0 41.307-9.274 46.556-21.886l-3.458.989z" fill="#474A86"/><path d="M831.63 350.463c-6.73-3.4-23.895-5.873-43.901-5.873-20.005 0-37.171 2.411-43.901 5.873h-3.087v3.277c0 5.008 21.055 9.088 46.988 9.088 25.995 0 46.989-4.08 46.989-9.088v-3.277h-3.088z" fill="#E96830"/><path d="M787.729 359.552c25.951 0 46.989-4.069 46.989-9.088 0-5.02-21.038-9.089-46.989-9.089-25.951 0-46.988 4.069-46.988 9.089 0 5.019 21.037 9.088 46.988 9.088z" fill="#FA7C44"/><path opacity=".19" d="M785.383 354.05c16.061 0 29.082-1.855 29.082-4.143s-13.021-4.142-29.082-4.142c-16.062 0-29.082 1.854-29.082 4.142 0 2.288 13.02 4.143 29.082 4.143z" fill="#475B53"/><path d="M785.383 253.522l-.618 10.819-1.605 29.12-2.717 48.965 1.359 6.801h-21.179a1.8 1.8 0 011.235-1.731c4.754-1.731 6.668-5.008 6.668-5.008l-2.346-48.965-1.42-29.12-.494-10.819h21.117v-.062z" fill="#FFB9A1"/><path d="M783.16 293.461l-.309 5.997-.123 1.917v.432l-.432 7.234-.433 8.099-.555 9.088-.926 16.26 1.358 6.739h-21.179a1.8 1.8 0 011.235-1.731c4.755-1.731 6.669-5.008 6.669-5.008l-.371-8.161-.37-8.099-.432-9.026-.371-8.099-.37-7.234v-.433l-.062-1.916-.309-5.997h16.98v-.062z" fill="#E6EBEF"/><path d="M785.383 253.522l-.617 10.819h-20.067l-.556-10.819h21.24z" fill="#EFA28E"/><path d="M814.218 259.828l-.494 8.594-1.543 25.039-2.964 48.965 1.358 6.801h-21.179a1.8 1.8 0 011.235-1.731c4.755-1.731 6.669-5.008 6.669-5.008l-2.532-48.965-1.296-25.039-.433-8.594h21.179v-.062z" fill="#FFB9A1"/><path d="M812.181 293.461l-.371 5.997-.123 1.917v.432l-.433 7.234-.494 8.099-.555 9.026-.988 16.26 1.358 6.739h-21.179c0-.803.494-1.484 1.235-1.731 4.755-1.731 6.669-5.008 6.669-5.008l-.432-8.161-.433-8.099-.493-9.026-.433-8.099-.37-7.234v-.432l-.124-1.917-.308-5.997h17.474z" fill="#E6EBEF"/><path d="M814.218 259.828l-.494 8.594h-20.252l-.433-8.594h21.179z" fill="#EFA28E"/><path d="M752.596 128.883s-.247 1.422-.617 3.833c-.124.866-.309 1.855-.433 2.968-2.222 14.22-6.977 47.234-7.224 66.276-.062 3.957.062 7.296.494 9.769.124.741.247 1.36.432 1.916.186.68.433 1.237.68 1.608 3.087 4.698 3.334 6.553 2.84 7.233 0 .062-.062.062-.062.062-.556.556-1.605.124-1.605.124.555 6.182-1.359 8.16-3.396 8.47-2.223.371-4.322-1.051-5.063-3.154a114.478 114.478 0 01-3.705-14.405c-.124-.618-.247-1.298-.371-1.916a139.159 139.159 0 01-1.482-9.769c-3.272-26.893.186-52.922 2.594-66.276.185-1.113.37-2.102.555-2.967.803-4.019 1.359-6.307 1.359-6.307l10.991 1.793 4.013.742z" fill="#FFB9A1"/><path d="M752.596 128.883s-.432 2.535-1.111 6.801h-15.931c1.05-5.874 1.915-9.274 1.915-9.274l15.127 2.473z" fill="#EFA28E"/><path d="M765.624 80.042v52.674h-30.502a172.973 172.973 0 012.408-6.306c.124-.371.247-.68.371-.989.247-.556.432-1.175.679-1.731 5.804-14.591 10.805-24.297 14.819-30.789 1.482-2.411 2.902-4.328 4.137-5.935 5.248-6.739 8.088-6.924 8.088-6.924z" fill="#4799DC"/><path opacity=".24" d="M757.474 86.966l7.348 45.75h-12.844c-.123.866-.308 1.855-.432 2.968-2.223 14.22-6.977 47.234-7.224 66.276-.062 3.957.062 7.295.494 9.768.247 1.608.617 2.783 1.111 3.586 3.088 4.699 3.335 6.554 2.841 7.234l-.062.062c-.432-.186-10.003-4.204-7.533-33.077 1.05-12.612 3.89-35.178 6.792-56.817.185-1.484.432-3.029.617-4.513 1.791-13.23 3.52-25.843 4.878-35.302l4.014-5.935z" fill="#AAA"/><path d="M852.006 201.96c-.061.618-.185 1.237-.247 1.855-.37 2.658-.802 5.255-1.296 7.913-.124.619-.247 1.299-.371 1.917-.988 4.699-2.161 9.397-3.643 13.972-.679 2.102-2.84 3.586-5.063 3.153-2.037-.37-3.952-2.287-3.396-8.469 0 0-4.939 1.792 1.112-7.419.247-.31.432-.742.555-1.237.186-.556.371-1.175.494-1.917.371-2.04.556-4.698.556-7.913v-1.855c-.185-18.795-4.94-51.747-7.163-66.276a268.646 268.646 0 00-1.173-7.234l15.128-2.473s.864 3.586 1.976 9.707c2.47 13.539 5.866 39.506 2.531 66.276z" fill="#FFB9A1"/><path d="M831.322 99.825v109.863h-78.726V102.113c0-12.303 8.583-22.628 20.067-25.287a25.85 25.85 0 015.866-.68h29.206c7.595 0 14.325 3.586 18.647 9.15a23.849 23.849 0 014.94 14.53z" fill="#4DA8F1"/><path d="M831.322 112.438h-78.726v28.17h78.726v-28.17z" fill="#D15656"/><path opacity=".24" d="M831.322 99.825v109.863h-78.726c67.611 0 63.104-18.486 63.104-18.486v-76.539c0-33.88 10.682-29.428 10.682-29.428 3.149 4.08 4.94 9.15 4.94 14.59z" fill="#848484"/><path d="M849.536 135.684h-15.93a268.646 268.646 0 00-1.173-7.234l15.127-2.473s.865 3.586 1.976 9.707z" fill="#EFA28E"/><path d="M850.524 132.283h-33.157s-.124-2.72-.185-6.924v-1.731c0-6.801.247-16.507 1.543-24.977 0 0 2.47-25.967 14.202-6.121 7.409 12.489 12.164 23.679 14.88 31.098.247.618.433 1.175.618 1.731 1.173 3.462 1.852 5.873 2.099 6.924z" fill="#4DA8F1"/><path d="M781.74 349.227h-21.179a1.8 1.8 0 011.235-1.731 16.987 16.987 0 002.593-1.236c.309-.186.556-.31.803-.495.124-.124.247-.186.371-.309.247-.186.494-.371.679-.557.123-.123.247-.185.37-.309.247-.247.433-.433.68-.618.802-.866 1.173-1.484 1.173-1.484s.741-1.607 1.296-.927c.556.742-.617 3.277 3.211 3.277s6.545-.928 7.41-2.35l1.358 6.739z" fill="#2B4A6D"/><path d="M781.74 349.165h-21.364v.928h21.364v-.928z" fill="#3A3A3A"/><path d="M765.872 346.507l-.68.618-.802-.865c.308-.186.555-.31.802-.495l.68.742zm1.049-.928l-.679.619-.741-.742c.247-.186.494-.371.679-.557l.741.68zm.988-.927l-.679.618-.679-.68c.247-.247.432-.433.679-.618l.679.68z" fill="#fff"/><path d="M810.637 349.227h-21.302a1.8 1.8 0 011.235-1.731 17.032 17.032 0 002.593-1.236c.309-.186.556-.31.803-.495.123-.124.247-.186.37-.309.247-.186.494-.371.679-.557.124-.123.247-.185.371-.309.247-.247.432-.433.679-.618.803-.866 1.173-1.484 1.173-1.484s.741-1.607 1.297-.927c.556.742-.618 3.277 3.211 3.277 3.828 0 6.606-.928 7.471-2.35l1.42 6.739z" fill="#2B4A6D"/><path d="M810.637 349.165h-21.488v.928h21.488v-.928z" fill="#3A3A3A"/><path d="M794.707 346.507l-.68.618-.864-.865c.309-.186.556-.31.803-.495l.741.742zm1.049-.928l-.679.619-.741-.742c.247-.186.494-.371.679-.557l.741.68zm.988-.927l-.679.618-.679-.68c.247-.247.432-.433.679-.618l.679.68z" fill="#fff"/><path opacity=".46" d="M785.383 253.522l-.618 10.819-1.605 29.12-2.778 48.965 1.358 6.801h-5.495l3.025-95.705h6.113z" fill="#AAA"/><path d="M752.596 209.255s.988 28.44 3.705 49.646h35.689v-49.646h-39.394z" fill="#C4C5C6"/><path d="M831.383 209.255s.432 25.967-5.619 50.573h-38.776l-5.433-50.573h49.828z" fill="#E6EBEF"/><path d="M764.945 49.005c.309.062.618.062.927.062.987 0 1.852-.804 1.852-1.793V37.94c0-.99-.741-1.793-1.729-1.793-3.458 0-6.298 2.72-6.483 6.182-.186 3.215 2.223 6.183 5.433 6.677z" fill="#ED9B85"/><path d="M764.822 46.1c.309 0 .617-.062.926-.124v-6.677c-.309-.062-.617-.124-.926-.124a3.455 3.455 0 00-3.458 3.462 3.455 3.455 0 003.458 3.463z" fill="#AF6152"/><path d="M807.92 10.86v45.75c0 5.502-3.766 10.077-8.83 11.314v10.943c0 6.924-5.618 12.488-12.472 12.488-4.261 0-8.027-2.102-10.25-5.378a12.299 12.299 0 01-2.223-7.11V67.244h-.123a11.984 11.984 0 01-3.52-1.855 9.802 9.802 0 01-1.852-1.731c-.124-.124-.185-.247-.309-.371a11.787 11.787 0 01-1.605-2.535 12.09 12.09 0 01-1.173-5.193l-.124-20.712-.062-6.986v-3.4c.186-25.472 4.076-13.663 6.051-13.663h36.492v.061z" fill="#FFB9A1"/><path d="M773.898 53.21s4.878 8.717 11.608 0h-11.608z" fill="#E09480"/><path d="M767.477 46.842a7.73 7.73 0 011.111 4.018v12.798c-.123-.124-.185-.247-.308-.371a12.193 12.193 0 01-2.779-7.728l-.124-20.712-.061-6.986v-3.4l.494.495v17.496c0 .927.247 1.793.679 2.597l.988 1.793z" fill="#EFA28E"/><path d="M807.92 10.86v45.75c0 5.502-3.766 10.077-8.829 11.314v10.943c0 6.924-5.619 12.488-12.473 12.488-4.26 0-8.027-2.102-10.25-5.379a12.298 12.298 0 01-2.222-7.11V67.245h-.124a12.404 12.404 0 01-5.742-3.895l4.075 1.854a12.91 12.91 0 005.248 1.113h9.756a2.967 2.967 0 002.964-2.967V52.097c0-1.855.864-3.648 2.408-4.761a5.422 5.422 0 002.223-4.39V19.144l3.581-8.223h9.385v-.062z" fill="#EFA28E"/><path d="M789.52 40.659a2.286 2.286 0 002.285-2.288 2.286 2.286 0 10-4.57 0 2.286 2.286 0 002.285 2.288zm-17.474 0a2.286 2.286 0 002.284-2.288 2.286 2.286 0 00-2.284-2.287 2.286 2.286 0 00-2.285 2.287 2.286 2.286 0 002.285 2.288z" fill="#2D2D2D"/><path d="M796.991 21.431s-49.829 17.62-50.137-8.16c0-.866 1.049-1.299 1.667-.68.803.803 1.914 1.421 3.334 1.236 3.273-.495 28.712-22.813 46.062-8.717 0 0 12.164-3.277 12.288 9.768.123 13.045-2.347 28.563-2.347 28.563s-13.152.557-10.867-22.01z" fill="#B25656"/><path d="M794.459 33.055a16.467 16.467 0 00-9.879.061 1.342 1.342 0 01-1.729-1.298v-.927c0-.619.432-1.175.988-1.299 1.729-.494 5.742-1.174 11.299.062.618.124 1.05.68 1.05 1.299v.741c.062.99-.864 1.67-1.729 1.36zm-17.782 0a16.468 16.468 0 00-9.879.061 1.342 1.342 0 01-1.729-1.298v-.927c0-.619.432-1.175.988-1.299 1.729-.494 5.742-1.174 11.299.062.618.124 1.05.68 1.05 1.299v.741c.062.99-.803 1.67-1.729 1.36z" fill="#893B3B"/><path d="M806.562 36.208c-.309-.062-.618-.062-.927-.062-.988 0-1.852.803-1.852 1.793v9.335c0 .99.741 1.793 1.729 1.793 3.458 0 6.298-2.72 6.483-6.182.124-3.215-2.284-6.121-5.433-6.677z" fill="#FFB9A1"/><path d="M806.623 39.113c-.309 0-.617.062-.926.124v6.677c.309.062.617.124.926.124a3.455 3.455 0 003.458-3.462c0-1.855-1.544-3.463-3.458-3.463z" fill="#AF6152"/><path d="M770.873 64.523l-.432.866a9.804 9.804 0 01-1.853-1.731c-.123-.124-.185-.248-.308-.371a11.791 11.791 0 01-1.606-2.535l1.914-1.298c0 .061-.494 4.265 2.285 5.07z" fill="#EFA28E"/><path d="M780.382 48.325h-2.47c-1.729 0-3.026-1.607-2.655-3.277l1.235-5.997c.247-1.298 1.358-2.163 2.655-2.163 1.296 0 2.408.927 2.655 2.163l1.235 5.997c.37 1.732-.927 3.277-2.655 3.277z" fill="#E86464"/><path fill-rule="evenodd" clip-rule="evenodd" d="M771.984 64.523c.617-1.916-1.914-8.531 2.408-10.139 1.482-.556 3.273-.742 4.94-.804 1.667.062 3.457.248 4.939.804 4.322 1.608 1.791 8.223 2.408 10.14 2.347-.99 6.051-11.315.618-14.53-1.791-1.05-4.075-1.298-7.904.248-3.828-1.546-6.112-1.298-7.903-.247-5.557 3.276-1.852 13.601.494 14.528z" fill="#893B3B"/><path fill-rule="evenodd" clip-rule="evenodd" d="M851.759 203.815c-.37 2.659-.802 5.255-1.296 7.914-.124.618-.247 1.298-.371 1.916h-10.373c.185-.556.37-1.174.494-1.916.37-2.041.556-4.699.556-7.914h10.99z" fill="#2B4A6D"/><path d="M814.65 240.662l-6.668 11.623a1.74 1.74 0 01-3.026 0l-.741-1.298-5.927-10.325c-.68-1.174.185-2.596 1.482-2.596h13.398c1.297 0 2.161 1.422 1.482 2.596z" fill="#E6EBEF"/><path d="M766.118 293.461h17.042l-.37 5.997h-16.425l-.247-5.997zm46.063 0l-.371 5.997h-16.733l-.309-5.997h17.413z" fill="#2B4A6D"/><path d="M811.859 253.169a6.549 6.549 0 006.545-6.553 6.55 6.55 0 00-6.545-6.554 6.55 6.55 0 00-6.545 6.554 6.55 6.55 0 006.545 6.553z" fill="#4DA8F1"/><path d="M174.295 355.514l13.893 2.844 21.487 2.659 30.997-.989 16.362-3.215 7.101-2.72c-5.001 12.797-24.019 22.318-46.741 22.318-22.476 0-41.308-9.273-46.556-21.886l3.457.989z" fill="#474A86"/><path d="M173.431 350.012c6.73-3.4 23.895-5.873 43.901-5.873 20.005 0 37.17 2.411 43.901 5.873h3.087v3.277c0 5.008-21.055 9.088-46.988 9.088-25.995 0-46.989-4.08-46.989-9.088v-3.277h3.088z" fill="#E96830"/><path d="M217.332 359.1c-25.951 0-46.989-4.069-46.989-9.088 0-5.019 21.038-9.088 46.989-9.088 25.951 0 46.988 4.069 46.988 9.088 0 5.019-21.037 9.088-46.988 9.088z" fill="#FA7C44"/><path opacity=".19" d="M219.74 353.598c-16.062 0-29.082-1.854-29.082-4.142 0-2.288 13.02-4.143 29.082-4.143s29.082 1.855 29.082 4.143-13.02 4.142-29.082 4.142z" fill="#475B53"/><path d="M219.74 253.071l.618 10.819 1.605 29.119 2.717 48.966-1.359 6.8H244.5c0-.803-.494-1.483-1.235-1.731-4.754-1.731-6.668-5.007-6.668-5.007l2.346-48.966 1.42-29.119.494-10.82H219.74v-.061z" fill="#FFB9A1"/><path d="M221.963 293.01l.432 7.913v.433l.432 7.233.433 8.099.494 9.027.926 16.26-1.359 6.739H244.5a1.8 1.8 0 00-1.235-1.731c-4.754-1.731-6.668-5.008-6.668-5.008l.37-8.161.432-8.037.433-9.027.37-8.099.37-7.233v-.433l.371-7.914h-16.98v-.061z" fill="#E6EBEF"/><path d="M221.963 293.01l.185 3.4.123 1.978.124 2.535v.433h16.177l.062-.433.124-2.535.061-1.978.186-3.4h-17.042z" fill="#D15656"/><path d="M222.148 296.41l.124 1.978h16.486l.061-1.978h-16.671z" fill="#E6EBEF"/><path d="M219.74 253.071l.555 10.819h20.068l.555-10.819H219.74z" fill="#EFA28E"/><path d="M190.843 259.377l.494 8.593 1.482 25.039 2.964 48.966-1.359 6.801h21.179c0-.804-.494-1.484-1.235-1.732-4.754-1.731-6.668-5.007-6.668-5.007l2.531-48.966 1.297-25.039.432-8.593h-21.117v-.062z" fill="#FFB9A1"/><path d="M192.88 293.01l.494 7.913v.433l.433 7.233.494 8.099.555 9.027.988 16.26-1.358 6.739h21.179a1.8 1.8 0 00-1.235-1.731c-4.755-1.731-6.669-5.008-6.669-5.008l.432-8.161.433-8.099.494-9.027.432-8.099.37-7.233v-.433l.432-7.913H192.88z" fill="#E6EBEF"/><path d="M190.843 259.377l.556 8.593h20.19l.494-8.593h-21.24z" fill="#EFA28E"/><path d="M252.465 128.432s.247 1.422.618 3.833c.123.865.308 1.855.432 2.967 2.223 14.22 6.977 47.235 7.224 66.277.062 3.956-.062 7.295-.494 9.768-.123.742-.247 1.36-.432 1.917-.185.68-.432 1.236-.679 1.607-3.088 4.699-3.335 6.553-2.841 7.234 0 .061.062.061.062.061.556.557 1.605.124 1.605.124-.555 6.183 1.359 8.161 3.396 8.47 2.223.371 4.323-1.051 5.064-3.153a114.69 114.69 0 003.704-14.405c.124-.618.247-1.299.371-1.917a139.132 139.132 0 001.482-9.768c3.272-26.894-.186-52.922-2.594-66.276a66.703 66.703 0 00-.555-2.968c-.803-4.019-1.359-6.306-1.359-6.306l-10.99 1.793-4.014.742z" fill="#FFB9A1"/><path d="M256.602 127.752l-4.075.68s.247 1.422.617 3.833c.124.865.309 1.855.432 2.967 2.223 14.22 6.978 47.235 7.225 66.277.061 3.956-.062 7.295-.494 9.768-.124.742-.247 1.36-.433 1.917h10.374c.123-.619.247-1.299.37-1.917a137.966 137.966 0 001.482-9.768c3.273-26.894-.185-52.922-2.593-66.277a66.53 66.53 0 00-.556-2.967c-.803-4.019-1.358-6.306-1.358-6.306l-10.991 1.793z" fill="#3A3A3A"/><path opacity=".51" d="M252.465 128.432s.432 2.534 1.111 6.8h15.931c-1.05-5.873-1.914-9.273-1.914-9.273l-15.128 2.473z" fill="#AAA"/><path d="M153.055 201.509c.432 3.276.926 6.491 1.543 9.768.124.618.247 1.298.371 1.917.988 4.698 2.161 9.397 3.643 13.972.679 2.102 2.84 3.586 5.063 3.153 2.038-.371 3.952-2.287 3.396-8.47 0 0 4.94 1.793-1.111-7.419-.247-.309-.433-.742-.556-1.236a12.273 12.273 0 01-.494-1.917c-.432-2.411-.618-5.75-.556-9.768.185-18.795 4.94-51.748 7.163-66.277a268.04 268.04 0 011.173-7.233l-15.128-2.473s-.864 3.586-1.976 9.706c-2.469 13.54-5.865 39.507-2.531 66.277z" fill="#FFB9A1"/><path d="M153.055 201.509c.432 3.276.926 6.491 1.543 9.768.124.618.247 1.298.371 1.917h10.373a12.385 12.385 0 01-.494-1.917c-.432-2.411-.617-5.75-.555-9.768.185-18.795 4.939-51.748 7.162-66.277a268.04 268.04 0 011.173-7.233l-15.127-2.473s-.865 3.586-1.976 9.706c-2.408 13.54-5.804 39.507-2.47 66.277z" fill="#3A3A3A"/><path opacity=".51" d="M155.525 135.232h15.93a268.04 268.04 0 011.173-7.233l-15.127-2.473s-.865 3.586-1.976 9.706z" fill="#AAA"/><path d="M240.372 82.53v52.674h30.503c-.803-2.164-1.606-4.327-2.409-6.306-.123-.371-.247-.68-.37-.989-6.113-15.518-11.299-25.781-15.498-32.458-1.482-2.411-2.902-4.328-4.137-5.935-5.248-6.801-8.089-6.987-8.089-6.987z" fill="#AA3D3D"/><path d="M174.613 102.313v109.863h78.788V104.601a26.03 26.03 0 00-2.841-11.809c-3.21-6.244-8.829-11.005-15.683-13.045-.494-.185-1.05-.309-1.544-.433-1.914-.432-3.828-.68-5.865-.68h-29.206c-3.766 0-7.348.866-10.497 2.473a23.81 23.81 0 00-8.15 6.677c-.865 1.113-1.605 2.288-2.285 3.524a23.595 23.595 0 00-2.717 11.005z" fill="#D15656"/><path d="M187.765 81.107v131.069h15.683V78.634h-5.124c-3.829 0-7.41.928-10.559 2.473zm-13.151 21.206v109.863h2.716V91.309a23.595 23.595 0 00-2.716 11.004zm37.232-16.569h15.683v126.432h-15.683V85.744z" fill="#3A3A3A"/><path opacity=".24" d="M174.613 102.313v109.863h78.788c-67.612 0-63.104-18.485-63.104-18.485v-76.54c0-33.88-10.682-29.428-10.682-29.428-3.149 4.08-5.002 9.15-5.002 14.59z" fill="#848484"/><path d="M155.472 134.771h33.158s.123-2.72.185-6.924c.062-6.801-.124-17.496-1.544-26.708 0 0-2.47-25.967-14.201-6.12-7.965 13.539-12.967 25.471-15.498 32.828-1.235 3.462-1.853 5.873-2.1 6.924z" fill="#D15656"/><path d="M234.877 79.747v132.429h15.683V92.792c-3.21-6.244-8.829-11.005-15.683-13.045zm-30.687 1.731c0 8.285 6.545 15.024 14.633 15.024 8.089 0 14.634-6.74 14.634-15.024 0-.741-.062-1.483-.124-2.163-1.914-.433-3.828-.68-5.865-.68h-22.97c-.185.927-.308 1.916-.308 2.843z" fill="#3A3A3A"/><path d="M243.041 124.323a6.549 6.549 0 01-6.545-6.553 6.55 6.55 0 016.545-6.554 6.55 6.55 0 016.545 6.554 6.55 6.55 0 01-6.545 6.553z" fill="#DFEAF2"/><path d="M223.321 348.776H244.5a1.8 1.8 0 00-1.235-1.731 16.937 16.937 0 01-2.593-1.237c-.309-.185-.556-.309-.803-.495-.123-.123-.247-.185-.37-.309a6.657 6.657 0 01-.68-.556c-.123-.124-.247-.186-.37-.309-.247-.247-.432-.433-.679-.618-.803-.866-1.173-1.484-1.173-1.484s-.741-1.608-1.297-.928c-.556.742.617 3.277-3.211 3.277s-6.545-.927-7.409-2.349l-1.359 6.739z" fill="#AA3D3D"/><path d="M223.321 348.714h21.364v.927h-21.364v-.927z" fill="#3A3A3A"/><path d="M239.19 346.055l.679.619.803-.866c-.309-.185-.556-.309-.803-.495l-.679.742zm-1.05-.927l.679.618.741-.742a6.532 6.532 0 01-.679-.556l-.741.68zm-.988-.927l.679.618.679-.68a5.947 5.947 0 00-.679-.618l-.679.68z" fill="#fff"/><path d="M194.486 348.776h21.302a1.8 1.8 0 00-1.235-1.731 16.937 16.937 0 01-2.593-1.237c-.309-.185-.556-.309-.803-.495-.123-.123-.247-.185-.37-.309a6.532 6.532 0 01-.679-.556c-.124-.124-.247-.186-.371-.309-.247-.247-.432-.433-.679-.618-.803-.866-1.173-1.484-1.173-1.484s-.741-1.608-1.297-.928c-.555.742.618 3.277-3.211 3.277-3.828 0-6.606-.927-7.471-2.349l-1.42 6.739z" fill="#AA3D3D"/><path d="M194.486 348.714h21.488v.927h-21.488v-.927z" fill="#3A3A3A"/><path d="M210.416 346.055l.68.619.864-.866c-.309-.185-.556-.309-.803-.495l-.741.742zm-1.049-.927l.679.618.741-.742a6.532 6.532 0 01-.679-.556l-.741.68zm-.988-.927l.679.618.679-.68a6.032 6.032 0 00-.679-.618l-.679.68z" fill="#fff"/><path opacity=".46" d="M219.74 253.071l.556 10.819 1.667 29.119 2.717 48.966-1.359 6.8h5.496l-2.964-95.704h-6.113z" fill="#AAA"/><path d="M252.465 208.804s-.988 28.439-3.705 49.645h-35.689v-49.645h39.394z" fill="#AA3D3D"/><path d="M173.74 208.804s-.433 25.966 5.618 50.573h38.777l5.433-50.573H173.74zm19.141 84.206l.185 3.4.123 1.978.186 2.535v.433h16.486l.061-.433.124-2.535.123-1.978.124-3.4h-17.412z" fill="#D15656"/><path d="M193.066 296.41h17.103l-.123 1.978h-16.857l-.123-1.978z" fill="#E6EBEF"/><path d="M242.462 45.957a6.488 6.488 0 01-6.483-6.491 6.488 6.488 0 016.483-6.492 6.488 6.488 0 016.484 6.492 6.488 6.488 0 01-6.484 6.491z" fill="#ED9B85"/><path d="M242.771 42.928c-.309 0-.617-.062-.926-.124v-6.677c.309-.062.617-.124.926-.124a3.455 3.455 0 013.458 3.463c.062 1.916-1.482 3.462-3.458 3.462z" fill="#AF6152"/><path d="M205.662 65.061V77.55c0 1.916.432 3.771 1.235 5.44 2.037 4.204 6.298 7.11 11.237 7.11 4.014 0 7.595-1.916 9.88-4.822.123-.186.308-.371.432-.557a12.299 12.299 0 002.223-7.11V65.124h-25.007v-.062z" fill="#FFB9A1"/><path d="M200.352 22.773v31.53c0 5.008 2.037 9.46 5.248 12.49 2.655 2.534 6.237 4.08 10.065 4.08h11.423c1.173 0 2.346-.124 3.457-.433 2.347-.557 4.508-1.793 6.298-3.4 3.396-3.03 5.558-7.667 5.558-12.798V22.71c0-2.968-.741-5.812-2.038-8.223-2.655-5.008-7.595-8.346-13.337-8.346h-11.423c-2.655 0-5.187.742-7.409 2.04-4.631 2.906-7.842 8.346-7.842 14.59z" fill="#FFB9A1"/><path d="M236.905 45.525v21.577c3.396-3.03 5.557-7.667 5.557-12.798V22.773c0-2.968-.741-5.811-2.037-8.223v21.948a6.09 6.09 0 01-1.235 3.71l-1.05 1.422c-.802 1.05-1.235 2.473-1.235 3.895zm-36.553-22.752v31.53c0 5.008 2.037 9.46 5.248 12.49v10.2c0 2.102.432 4.143 1.235 5.936 2.038 4.204 6.298 7.11 11.238 7.11 4.013 0 7.594-1.917 9.879-4.823-9.817 2.844-11.732-4.575-11.732-4.575V46.204c0-1.978-1.049-3.833-2.655-4.76l-2.346-1.298c-1.729-.99-2.84-2.906-2.84-5.07V8.244c-4.816 2.844-8.027 8.285-8.027 14.529z" fill="#EFA28E"/><path d="M217.455 36.56a2.163 2.163 0 01-2.161-2.164 2.162 2.162 0 114.322 0 2.162 2.162 0 01-2.161 2.164zm17.289 0a2.163 2.163 0 01-2.161-2.164 2.162 2.162 0 114.322 0 2.162 2.162 0 01-2.161 2.164z" fill="#302B2A"/><path d="M222.148 29.574c-2.038-.619-5.619-1.299-9.879.062a1.342 1.342 0 01-1.729-1.299v-.927c0-.618.432-1.175.988-1.299 1.729-.494 5.742-1.174 11.299.062.618.124 1.05.68 1.05 1.299v.742c0 .989-.865 1.607-1.729 1.36zm18.215 0c-2.038-.619-5.619-1.299-9.879.062a1.342 1.342 0 01-1.729-1.299v-.927c0-.618.432-1.175.988-1.299 1.728-.494 5.742-1.174 11.299.062.617.124 1.05.68 1.05 1.299v.742c.061.989-.865 1.607-1.729 1.36z" fill="#3A3A3A"/><path d="M222.21 55.973c1.605 1.916 5.063 4.76 9.57.062.494-.495.124-1.299-.555-1.299h-8.46c-.679-.061-.988.742-.555 1.237zm-3.396-3.957c-1.262 0-2.285-.775-2.285-1.731 0-.956 1.023-1.731 2.285-1.731 1.261 0 2.284.775 2.284 1.731 0 .956-1.023 1.731-2.284 1.731zm15.498 0c-1.262 0-2.285-.775-2.285-1.731 0-.956 1.023-1.731 2.285-1.731 1.262 0 2.284.775 2.284 1.731 0 .956-1.022 1.731-2.284 1.731z" fill="#E09480"/><path d="M217.949 49.79s1.112 1.299 2.717 2.72c1.976 1.794 4.693 3.834 6.854 3.834 1.358 0 2.655-.866 3.704-1.917 1.853-1.978 3.088-4.636 3.088-4.636s-.741.185-2.161.432c-2.161.31-5.804.557-10.682.062-1.112-.123-2.285-.247-3.52-.494z" fill="#212121"/><path d="M221.407 50.285v.37c0 .557.432 1.052 1.05 1.052h8.644c.556 0 1.05-.433 1.05-1.051v-.433c-2.161.31-5.866.557-10.744.062z" fill="#fff"/><path d="M220.666 52.572c1.976 1.793 4.693 3.834 6.854 3.834 1.358 0 2.655-.866 3.705-1.917-1.235-1.113-4.014-2.226-10.559-1.916z" fill="#D64D4D"/><path d="M226.841 44.906l-2.47-3.585h7.903l-2.47 3.585c-.679 1.051-2.222 1.051-2.963 0z" fill="#EFA28E"/><path d="M227.149 43.67h2.47c1.729 0 3.026-1.608 2.655-3.277l-1.235-5.997c-.247-1.298-1.358-2.164-2.655-2.164a2.716 2.716 0 00-2.655 2.164l-1.235 5.997c-.37 1.67.926 3.277 2.655 3.277z" fill="#E86464"/><path opacity=".5" d="M200.352 22.773v10.943c8.336.247 4.384-15.951 6.916-18.053 2.531-2.102 15.992 1.546 21.487 1.546 5.495 0 7.78-1.732 10.929-1.546 2.284.185 2.717 9.15 2.778 13.849v-6.74c0-2.967-.741-5.81-2.037-8.222-2.655-5.008-7.595-8.346-13.337-8.346h-11.423c-2.655 0-5.187.742-7.41 2.04-4.692 2.844-7.903 8.285-7.903 14.529z" fill="#3A3A3A"/><path d="M199.364 33.036c.309-.062.617-.062.926-.062.988 0 1.852.804 1.852 1.793v9.336c0 .989-.74 1.792-1.728 1.792-3.458 0-6.298-2.72-6.484-6.182-.123-3.215 2.285-6.12 5.434-6.677z" fill="#FFB9A1"/><path d="M199.302 35.941c.309 0 .618.062.926.124v6.677c-.308.062-.617.124-.926.124a3.454 3.454 0 01-3.457-3.462c-.062-1.855 1.543-3.463 3.457-3.463z" fill="#AF6152"/><path opacity=".63" d="M227.149 70.935c1.173 0 2.347-.124 3.458-.433V71.8c-1.111.31-2.285.433-3.458.433h-11.423c-3.828 0-7.409-1.546-10.064-4.08v-1.299c2.655 2.535 6.236 4.08 10.064 4.08h11.423z" fill="#AAA"/><path d="M201.587 252.947a6.549 6.549 0 01-6.545-6.553 6.55 6.55 0 016.545-6.554 6.55 6.55 0 016.545 6.554 6.55 6.55 0 01-6.545 6.553z" fill="#E6EBEF"/><path d="M958.571 355.966l-13.893 2.844-21.488 2.658-30.996-.989-16.362-3.215-7.101-2.72c5.001 12.798 24.019 22.319 46.741 22.319 22.476 0 41.308-9.274 46.556-21.886l-3.457.989z" fill="#474A86"/><path d="M959.435 350.464c-6.73-3.401-23.896-5.874-43.901-5.874-20.006 0-37.171 2.412-43.901 5.874h-3.087v3.276c0 5.008 21.055 9.089 46.988 9.089 25.995 0 46.988-4.081 46.988-9.089v-3.276h-3.087z" fill="#E96830"/><path d="M915.534 359.552c25.951 0 46.988-4.069 46.988-9.088 0-5.02-21.037-9.089-46.988-9.089s-46.988 4.069-46.988 9.089c0 5.019 21.037 9.088 46.988 9.088z" fill="#FA7C44"/><path opacity=".19" d="M913.188 354.05c16.062 0 29.082-1.855 29.082-4.143s-13.02-4.142-29.082-4.142-29.082 1.854-29.082 4.142c0 2.288 13.02 4.143 29.082 4.143z" fill="#475B53"/><path d="M913.188 253.522l-.618 10.819-1.605 29.12-2.717 48.965 1.359 6.801h-21.179a1.8 1.8 0 011.235-1.731c4.754-1.731 6.668-5.008 6.668-5.008l-2.346-48.965-1.42-29.12-.494-10.819h21.117v-.062z" fill="#FFB9A1"/><path d="M910.965 293.461l-.432 7.914v.432l-.432 7.234-.433 8.099-.494 9.026-.926 16.26 1.359 6.739h-21.179a1.8 1.8 0 011.235-1.731c4.754-1.731 6.668-5.008 6.668-5.008l-.37-8.161-.371-8.099-.432-9.026-.37-8.099-.371-7.234v-.432l-.37-7.914h16.918z" fill="#E6EBEF"/><path d="M910.965 293.461l-.185 3.4-.124 1.979-.123 2.535-.062.432h-16.177v-.432l-.124-2.535-.123-1.979-.124-3.4h17.042z" fill="#CF2B47"/><path d="M910.78 296.861l-.124 1.979H894.17l-.123-1.979h16.733z" fill="#E6EBEF"/><path d="M913.188 253.522l-.617 10.819h-20.068l-.494-10.819h21.179z" fill="#EFA28E"/><path d="M942.023 259.828l-.494 8.594-1.482 25.039-2.964 48.965 1.359 6.801h-21.179a1.8 1.8 0 011.235-1.731c4.754-1.731 6.668-5.008 6.668-5.008l-2.531-48.965-1.297-25.039-.432-8.594h21.117v-.062z" fill="#FFB9A1"/><path d="M939.985 293.461l-.494 7.914v.432l-.432 7.234-.494 8.099-.556 9.026-.988 16.26 1.359 6.739h-21.179a1.8 1.8 0 011.235-1.731c4.754-1.731 6.668-5.008 6.668-5.008l-.432-8.161-.432-8.099-.494-9.026-.432-8.099-.371-7.234v-.432l-.432-7.914h17.474z" fill="#E6EBEF"/><path d="M942.023 259.828l-.494 8.594h-20.253l-.432-8.594h21.179z" fill="#EFA28E"/><path d="M880.401 128.883s-.247 1.422-.618 3.833c-.123.866-.308 1.855-.494 2.968-2.222 14.22-6.977 47.234-7.224 66.276v1.855c0 3.153.185 5.873.494 7.914.124.741.247 1.36.432 1.916.186.68.433 1.237.68 1.608 3.087 4.698 3.334 6.553 2.84 7.233l-.062.062c-.494.556-1.605.124-1.605.124.556 6.182-1.359 8.099-3.396 8.47-2.223.371-4.384-1.051-5.063-3.154a120.175 120.175 0 01-3.705-14.405c-.124-.618-.247-1.298-.37-1.916-.494-2.659-.927-5.255-1.235-7.914-.062-.618-.186-1.236-.247-1.855-3.273-26.893.185-52.922 2.593-66.276.185-1.113.37-2.102.556-2.967.802-4.019 1.358-6.307 1.358-6.307l10.991 1.793 4.075.742z" fill="#FFB9A1"/><path d="M872.621 211.729c.123.741.247 1.36.432 1.916H862.68c-.124-.618-.247-1.298-.371-1.916-.494-2.659-.926-5.256-1.235-7.914h11.053c-.062 3.153.123 5.873.494 7.914z" fill="#FAAD1A"/><path d="M880.401 128.883s-.432 2.535-1.112 6.801h-15.93c1.05-5.874 1.914-9.274 1.914-9.274l15.128 2.473z" fill="#EFA28E"/><path d="M893.429 80.041v52.675h-30.502a343.3 343.3 0 012.408-6.306c.124-.371.247-.68.371-.989.247-.557.432-1.175.679-1.731.802-2.102 1.667-4.081 2.47-5.997 1.296-3.153 2.593-5.997 3.828-8.656.803-1.793 1.605-3.4 2.408-5.008a168.05 168.05 0 014.631-8.655c.494-.927 1.049-1.731 1.543-2.535 1.482-2.411 2.902-4.328 4.137-5.935 5.187-6.677 8.027-6.863 8.027-6.863z" fill="#B9273F"/><path d="M893.429 123.69v9.026h-30.502c.494-1.298.988-2.596 1.42-3.833.247-.618.432-1.175.679-1.731.062-.247.186-.495.247-.68.124-.371.247-.68.371-.989.247-.557.432-1.175.679-1.731h27.106v-.062z" fill="#FAAD1A"/><path opacity=".24" d="M885.279 86.966l7.347 45.75h-12.843c-.123.866-.308 1.855-.432 2.968-2.223 14.22-6.977 47.234-7.224 66.276-.062 3.957.062 7.295.494 9.768.247 1.608.617 2.783 1.111 3.586 3.088 4.699 3.335 6.554 2.841 7.234l-.062.062c-.432-.186-10.003-4.204-7.533-33.077 1.05-12.612 3.89-35.178 6.792-56.817.185-1.484.432-3.029.617-4.513 1.791-13.23 3.52-25.843 4.878-35.302l4.014-5.935z" fill="#AAA"/><path d="M979.811 201.96l-.247 1.855c-.37 2.658-.803 5.255-1.296 7.913-.124.619-.248 1.299-.371 1.917-.988 4.699-2.161 9.397-3.643 13.972-.679 2.103-2.84 3.586-5.063 3.154-2.038-.371-3.952-2.288-3.396-8.532 0 0-4.94 1.793 1.111-7.419.247-.309.433-.742.556-1.237.185-.556.37-1.174.494-1.916.37-2.041.556-4.699.556-7.914v-1.855c-.186-18.794-4.94-51.747-7.163-66.276-.679-4.513-1.111-7.233-1.111-7.233l15.127-2.473s.865 3.585 1.976 9.706c2.47 13.602 5.804 39.568 2.47 66.338z" fill="#FFB9A1"/><path d="M959.188 99.825v109.863h-78.726V102.113c0-1.793.186-3.586.556-5.255a25.71 25.71 0 017.286-13.293c1.482-1.483 3.211-2.782 5.001-3.833a26.048 26.048 0 017.286-2.905 25.845 25.845 0 015.866-.68h29.206c1.544 0 3.025.123 4.507.432 4.94.928 9.324 3.463 12.658 6.987.556.556 1.05 1.112 1.482 1.73 2.532 3.277 4.26 7.234 4.816 11.562 0 .989.062 1.978.062 2.967z" fill="#CF2B47"/><path opacity=".24" d="M959.188 99.825v109.863h-78.726c67.612 0 63.104-18.486 63.104-18.486v-76.539c0-33.88 10.682-29.428 10.682-29.428 3.088 4.08 4.94 9.15 4.94 14.59z" fill="#848484"/><path d="M977.341 135.684h-15.93a268.646 268.646 0 00-1.173-7.234l15.127-2.473s.927 3.586 1.976 9.707z" fill="#EFA28E"/><path d="M978.329 132.284h-33.157s-.123-2.721-.185-6.925v-1.731c0-1.793 0-3.833.062-5.997.061-2.72.185-5.688.37-8.655.123-1.67.247-3.339.432-5.008.186-1.855.432-3.648.679-5.379 0 0 .124-1.36.494-3.215 1.174-6.244 4.693-18.176 13.708-2.844.556.99 1.111 1.917 1.667 2.844a134.042 134.042 0 014.631 8.656c.864 1.731 1.667 3.4 2.47 5.008 1.482 3.091 2.717 5.997 3.828 8.655.926 2.164 1.667 4.204 2.346 5.997.247.618.433 1.175.618 1.731 1.111 3.401 1.79 5.812 2.037 6.863zm-68.784 216.943h-21.179a1.8 1.8 0 011.235-1.731 17.032 17.032 0 002.593-1.236c.309-.186.556-.31.803-.495.123-.124.247-.186.37-.309.247-.186.494-.371.68-.557.123-.123.247-.185.37-.309.247-.247.432-.433.679-.618.803-.866 1.173-1.484 1.173-1.484s.741-1.607 1.297-.927c.556.742-.617 3.277 3.211 3.277s6.545-.928 7.409-2.35l1.359 6.739z" fill="#CF2B47"/><path d="M909.545 349.165h-21.364v.928h21.364v-.928z" fill="#3A3A3A"/><path d="M893.738 346.507l-.679.618-.803-.865c.309-.186.556-.31.803-.495l.679.742zm.988-.928l-.68.619-.741-.742c.247-.186.494-.371.68-.557l.741.68zm1.05-.927l-.68.618-.679-.68c.247-.247.432-.433.679-.618l.68.68z" fill="#fff"/><path d="M938.442 349.227H917.14a1.8 1.8 0 011.235-1.731 17.078 17.078 0 002.593-1.236c.309-.186.556-.31.803-.495.123-.124.247-.186.37-.309.247-.186.494-.371.679-.557.124-.123.247-.185.371-.309.247-.247.432-.433.679-.618.803-.866 1.173-1.484 1.173-1.484s.741-1.607 1.297-.927c.555.742-.618 3.277 3.21 3.277 3.829 0 6.607-.928 7.472-2.35l1.42 6.739z" fill="#CF2B47"/><path d="M938.442 349.165h-21.488v.928h21.488v-.928z" fill="#3A3A3A"/><path d="M922.511 346.507l-.679.618-.864-.865c.309-.186.556-.31.803-.495l.74.742zm1.05-.928l-.679.619-.741-.742c.247-.186.494-.371.679-.557l.741.68zm.988-.927l-.679.618-.68-.68c.247-.247.433-.433.68-.618l.679.68z" fill="#fff"/><path opacity=".46" d="M913.188 253.522l-.618 10.819-1.605 29.12-2.779 48.965 1.359 6.801h-5.496l3.026-95.705h6.113z" fill="#AAA"/><path d="M880.401 209.255s.988 28.44 3.705 49.646h35.688v-49.646h-39.393z" fill="#C4C5C6"/><path d="M959.188 209.255s.433 25.967-5.619 50.573h-38.776l-5.433-50.573h49.828zM929.303 78.99c0 8.285-6.545 15.024-14.633 15.024-8.089 0-14.634-6.739-14.634-15.024 0-.741.062-1.483.124-2.163 1.914-.433 3.828-.68 5.865-.68h22.97c.185.927.308 1.916.308 2.843z" fill="#E6EBEF"/><path d="M978.329 132.283h-33.157s-.062-1.298-.123-3.462c0-.556 0-1.113-.062-1.731v-3.462h30.626c.247.618.432 1.175.617 1.731.185.618.432 1.175.556 1.731.185.618.37 1.237.555 1.731.556 1.608.865 2.782.988 3.462z" fill="#FAAD1A"/><path d="M939.985 293.461l-.185 3.4-.123 1.979-.124 2.535-.062.432h-16.486v-.432l-.123-2.535-.124-1.979-.185-3.4h17.412z" fill="#CF2B47"/><path d="M939.8 296.861h-17.042l.124 1.979h16.795l.123-1.979z" fill="#E6EBEF"/><path d="M890.465 46.409a6.487 6.487 0 006.483-6.492 6.487 6.487 0 00-6.483-6.491 6.488 6.488 0 00-6.483 6.491 6.488 6.488 0 006.483 6.492z" fill="#ED9B85"/><path d="M890.095 43.38c.309 0 .617-.063.926-.124v-6.678c-.309-.061-.617-.123-.926-.123a3.455 3.455 0 00-3.458 3.462 3.455 3.455 0 003.458 3.462z" fill="#AF6152"/><path d="M927.266 65.513V78c0 1.917-.433 3.771-1.235 5.44-2.038 4.205-6.298 7.11-11.238 7.11-4.013 0-7.595-1.916-9.879-4.822-.124-.185-.247-.37-.432-.556a12.298 12.298 0 01-2.223-7.11V65.574h25.007v-.061z" fill="#FFB9A1"/><path d="M932.514 23.224v31.531c0 5.008-2.038 9.46-5.248 12.489-2.655 2.534-6.237 4.08-10.065 4.08h-11.423c-1.173 0-2.346-.124-3.457-.433-2.347-.556-4.508-1.793-6.299-3.4-3.396-3.03-5.557-7.666-5.557-12.798v-31.53c0-2.968.741-5.812 2.038-8.223 2.655-5.008 7.595-8.347 13.337-8.347h11.423c2.655 0 5.187.742 7.409 2.04 4.631 2.906 7.842 8.347 7.842 14.591z" fill="#FFB9A1"/><path d="M896.022 45.976v21.577c-3.396-3.03-5.557-7.666-5.557-12.798v-31.53c0-2.968.741-5.812 2.038-8.223v21.947a6.09 6.09 0 001.235 3.71l1.05 1.422a6.956 6.956 0 011.234 3.895zm36.492-22.752v31.531c0 5.008-2.038 9.46-5.248 12.489v10.2c0 2.103-.433 4.143-1.235 5.936-2.038 4.204-6.298 7.11-11.238 7.11-4.013 0-7.595-1.917-9.879-4.822 9.817 2.843 11.731-4.576 11.731-4.576V46.657c0-1.978 1.05-3.833 2.656-4.76l2.346-1.299c1.729-.989 2.84-2.906 2.84-5.07V8.697c4.816 2.844 8.027 8.284 8.027 14.528z" fill="#EFA28E"/><path d="M915.411 37.011a2.163 2.163 0 002.161-2.164 2.162 2.162 0 10-4.322 0c0 1.195.967 2.164 2.161 2.164zm-17.289 0a2.163 2.163 0 002.161-2.164 2.163 2.163 0 10-2.161 2.164z" fill="#302B2A"/><path d="M910.78 30.025c2.037-.618 5.619-1.298 9.879.062a1.342 1.342 0 001.729-1.299v-.927c0-.618-.432-1.175-.988-1.298-1.729-.495-5.742-1.175-11.3.062a1.323 1.323 0 00-1.049 1.298v.742c-.062.99.864 1.607 1.729 1.36zm-18.277 0c2.037-.618 5.619-1.298 9.879.062a1.342 1.342 0 001.729-1.299v-.927c0-.618-.432-1.175-.988-1.298-1.729-.495-5.742-1.175-11.299.062-.618.123-1.05.68-1.05 1.298v.742c0 .99.864 1.607 1.729 1.36z" fill="#3A3A3A"/><path opacity=".5" d="M932.514 23.224v10.943c-8.335.247-4.384-15.95-6.915-18.053-2.532-2.102-15.992 1.546-21.488 1.546-5.495 0-7.78-1.731-10.929-1.546-2.284.186-2.716 9.15-2.778 13.85v-6.74c0-2.967.741-5.811 2.037-8.223 2.655-5.007 7.595-8.346 13.337-8.346h11.423c2.655 0 5.187.742 7.41 2.04 4.692 2.844 7.903 8.285 7.903 14.53z" fill="#3A3A3A"/><path d="M933.502 33.487c-.309-.061-.618-.061-.926-.061-.988 0-1.853.803-1.853 1.793v9.335c0 .99.741 1.793 1.729 1.793 3.458 0 6.298-2.72 6.483-6.182.186-3.215-2.222-6.121-5.433-6.678z" fill="#FFB9A1"/><path d="M933.625 36.393c-.308 0-.617.062-.926.124v6.677c.309.062.618.123.926.123a3.455 3.455 0 003.458-3.462c0-1.854-1.544-3.462-3.458-3.462z" fill="#AF6152"/><path opacity=".63" d="M905.778 71.386c-1.173 0-2.346-.124-3.457-.433v1.298c1.111.31 2.284.433 3.457.433h11.423c3.828 0 7.41-1.545 10.065-4.08v-1.299c-2.655 2.535-6.237 4.081-10.065 4.081h-11.423z" fill="#AAA"/><path d="M899.974 50.427s4.878 8.718 11.608 0h-11.608z" fill="#E09480"/><path d="M910.533 46.409a10.28 10.28 0 00-2.408-.31h-4.755c-.741 0-1.482.063-2.161.248-3.334.804-5.804 3.339-5.804 6.368v12.18c0 3.647 3.581 6.553 7.965 6.553h4.755c4.384 0 7.965-2.968 7.965-6.553v-12.18c0-2.968-2.347-5.44-5.557-6.306zm-9.756 5.873c0-.927.926-1.73 2.037-1.73h5.928c1.173 0 2.099.741 2.099 1.73v6.986h-1.852c-.679 0-1.235-.37-1.482-.865l-1.544-3.462c-.123-.31-.493-.495-.864-.495-.432 0-.803.247-.926.556l-1.112 3.524c-.185.557-.802.99-1.543.99h-.679v-7.234h-.062z" fill="#3A3A3A"/><path d="M908.804 46.841h-5.928c-1.173 0-2.037.742-2.037 1.731v3.71c0-.927.926-1.731 2.037-1.731h5.928c1.173 0 2.099.742 2.099 1.73v-3.709c-.062-.989-.988-1.73-2.099-1.73zm-.68 20.836h-4.754c-4.384 0-7.965-2.968-7.965-6.554v3.71c0 3.647 3.581 6.553 7.965 6.553h4.754c4.384 0 7.966-2.968 7.966-6.553v-3.71c0 3.648-3.582 6.554-7.966 6.554z" fill="#2D2D2D"/><path d="M906.458 36.95c-.124-.99-1.482-1.113-1.791-.186-.617 1.793-1.482 3.895-2.346 4.884-1.606 1.917 0 3.957 2.346 3.462 1.729-.309 2.223-4.637 1.791-8.16z" fill="#DD6B6B"/><path d="M934.861 120.908a5.252 5.252 0 005.248-5.256 5.252 5.252 0 00-5.248-5.255 5.252 5.252 0 00-5.249 5.255 5.252 5.252 0 005.249 5.256zm-2.347 134.778a5.251 5.251 0 005.248-5.255 5.251 5.251 0 00-5.248-5.255 5.251 5.251 0 00-5.248 5.255 5.251 5.251 0 005.248 5.255zm47.05-51.871a176.874 176.874 0 01-1.297 7.914c-.123.618-.247 1.298-.37 1.916h-10.373c.185-.556.37-1.175.494-1.916.37-2.041.555-4.699.555-7.914h10.991z" fill="#FAAD1A"/><path d="M704.082 355.966l-13.893 2.844-21.488 2.658-30.996-.989-16.362-3.215-7.101-2.72c5.001 12.798 24.019 22.319 46.741 22.319 22.476 0 41.308-9.274 46.556-21.886l-3.457.989z" fill="#474A86"/><path d="M705.008 350.463c-6.73-3.4-23.895-5.873-43.901-5.873-20.005 0-37.171 2.411-43.901 5.873h-3.087v3.277c0 5.008 21.055 9.088 46.988 9.088s46.988-4.08 46.988-9.088v-3.277h-3.087z" fill="#E96830"/><path d="M661.045 359.552c25.951 0 46.989-4.069 46.989-9.088 0-5.02-21.038-9.089-46.989-9.089-25.951 0-46.988 4.069-46.988 9.089 0 5.019 21.037 9.088 46.988 9.088z" fill="#FA7C44"/><path opacity=".19" d="M658.699 354.05c16.062 0 29.082-1.855 29.082-4.143s-13.02-4.142-29.082-4.142-29.082 1.854-29.082 4.142c0 2.288 13.02 4.143 29.082 4.143z" fill="#475B53"/><path d="M658.699 253.522l-.618 10.819-1.605 29.12-2.717 48.965 1.359 6.801h-21.179a1.8 1.8 0 011.235-1.731c4.754-1.731 6.668-5.008 6.668-5.008l-2.346-48.965-1.42-29.12-.494-10.819h21.117v-.062z" fill="#FFB9A1"/><path d="M656.476 293.461l-.432 7.914v.432l-.432 7.234-.433 8.099-.494 9.026-.926 16.26 1.359 6.739h-21.179c0-.803.494-1.484 1.235-1.731 4.754-1.731 6.668-5.008 6.668-5.008l-.37-8.161-.371-8.099-.432-9.026-.37-8.099-.371-7.234v-.432l-.37-7.914h16.918z" fill="#3A3A3A"/><path d="M656.476 293.461l-.185 3.4-.123 1.979-.124 2.535v.432h-16.177l-.062-.432-.123-2.535-.062-1.979-.185-3.4h17.041z" fill="#E6EBEF"/><path d="M656.291 296.861l-.123 1.979h-16.486l-.062-1.979h16.671z" fill="#3A3A3A"/><path d="M658.699 253.522l-.618 10.819h-20.067l-.494-10.819h21.179z" fill="#EFA28E"/><path d="M687.534 259.828l-.494 8.594-1.482 25.039-2.964 48.965 1.359 6.801h-21.179a1.8 1.8 0 011.235-1.731c4.754-1.731 6.669-5.008 6.669-5.008l-2.532-48.965-1.297-25.039-.432-8.594h21.117v-.062z" fill="#FFB9A1"/><path d="M685.558 293.461l-.494 7.914v.432l-.432 7.234-.494 8.099-.556 9.026-.988 16.26 1.359 6.739h-21.179c0-.803.494-1.484 1.235-1.731 4.754-1.731 6.669-5.008 6.669-5.008l-.433-8.161-.432-8.099-.494-9.026-.432-8.099-.37-7.234v-.432l-.433-7.914h17.474z" fill="#3A3A3A"/><path d="M687.534 259.828l-.494 8.594h-20.252l-.432-8.594h21.178z" fill="#EFA28E"/><path d="M625.912 128.883s-.247 1.422-.617 3.833c-.124.866-.309 1.855-.494 2.968-2.223 14.22-6.977 47.234-7.224 66.276-.062 2.968 0 5.564.247 7.728.061.742.185 1.422.247 2.041.123.741.247 1.36.432 1.916.185.68.432 1.237.679 1.608 3.087 4.698 3.334 6.553 2.84 7.233l-.061.062c-.556.556-1.606.124-1.606.124.556 6.182-1.358 8.099-3.396 8.47-2.223.371-4.322-1.051-5.063-3.154a120.175 120.175 0 01-3.705-14.405c-.123-.618-.247-1.298-.37-1.916l-.371-2.04a179.985 179.985 0 01-1.111-7.729c-3.273-26.893.185-52.922 2.593-66.276a66.26 66.26 0 01.556-2.967c.803-4.019 1.358-6.307 1.358-6.307l10.991 1.793 4.075.742z" fill="#FFB9A1"/><path d="M625.974 128.883s-.432 2.535-1.112 6.801h-15.93c1.05-5.874 1.914-9.274 1.914-9.274l15.128 2.473z" fill="#EFA28E"/><path d="M638.941 80.041v52.675h-30.503a350.706 350.706 0 012.408-6.306c.124-.371.247-.68.371-.989.247-.556.432-1.175.679-1.731l.37-.927c3.335-8.223 6.36-14.9 9.077-20.279 1.605-3.153 3.087-5.812 4.507-8.16.309-.495.618-.99.865-1.485 1.482-2.41 2.902-4.328 4.137-5.935 1.111-1.36 2.037-2.473 2.964-3.4 3.334-3.339 5.125-3.463 5.125-3.463z" fill="#D2D8DB"/><path d="M633.754 83.565l-5.866 49.151h-6.668l4.569-38.331c.308-.495.617-.99.864-1.484 1.482-2.411 2.902-4.328 4.137-5.935 1.112-1.422 2.099-2.535 2.964-3.4z" fill="#3A3A3A"/><path opacity=".24" d="M630.852 86.966l7.347 45.75h-12.843c-.123.866-.308 1.855-.432 2.968-2.223 14.219-6.977 47.234-7.224 66.276-.062 3.957.062 7.295.494 9.768.247 1.608.617 2.782 1.111 3.586 3.087 4.699 3.334 6.554 2.84 7.234l-.061.062c-.433-.186-10.003-4.205-7.533-33.077 1.049-12.612 3.89-35.178 6.792-56.817.185-1.484.432-3.029.617-4.513 1.791-13.231 3.52-25.843 4.878-35.302l4.014-5.935z" fill="#AAA"/><path d="M725.322 201.96a178.273 178.273 0 01-1.543 9.768c-.124.619-.247 1.299-.371 1.917-.988 4.699-2.161 9.397-3.643 13.972-.679 2.102-2.84 3.586-5.063 3.153-2.038-.37-3.952-2.287-3.396-8.469 0 0-4.94 1.792 1.112-7.419.247-.31.432-.742.555-1.237.185-.556.371-1.175.494-1.917.432-2.411.618-5.749.556-9.768-.185-18.795-4.94-51.747-7.163-66.276a268.646 268.646 0 00-1.173-7.234l15.128-2.473s.864 3.586 1.976 9.707c2.531 13.539 5.927 39.506 2.531 66.276z" fill="#FFB9A1"/><path d="M704.699 99.825v109.863h-78.787V102.113a25.788 25.788 0 017.41-18.115 25.828 25.828 0 016.051-4.637 26.598 26.598 0 016.606-2.535 25.958 25.958 0 013.026-.556 21.2 21.2 0 012.84-.185h29.391c2.408 0 4.693.37 6.854 1.05 3.705 1.175 6.977 3.154 9.632 5.874.741.68 1.359 1.422 1.976 2.226 3.149 4.08 5.001 9.15 5.001 14.59z" fill="#E6EBEF"/><path d="M664.75 76.146h-9.632v133.542h9.632V76.146zm16.486 0v133.542h-9.632V76.146h9.632zm16.486 6.924v126.618h-9.632V77.259c3.705 1.113 6.977 3.153 9.632 5.812zm-48.655-6.738V209.75h-9.632V79.361a26.598 26.598 0 016.606-2.535c.988-.185 1.976-.37 3.026-.494zm-15.745 7.666V209.75h-7.41V102.175c0-7.11 2.841-13.54 7.41-18.177z" fill="#3A3A3A"/><path opacity=".24" d="M704.699 99.825v109.863h-78.725c67.611 0 63.104-18.486 63.104-18.486v-76.539c0-33.88 10.682-29.428 10.682-29.428 3.087 4.08 4.939 9.15 4.939 14.59z" fill="#848484"/><path d="M722.914 135.684h-15.992a268.646 268.646 0 00-1.173-7.234l15.127-2.473s.927 3.586 2.038 9.707z" fill="#EFA28E"/><path d="M723.841 132.283h-33.158s-.123-2.72-.185-6.924v-1.731c0-6.121.185-14.591 1.173-22.381l.371-2.596s.988-10.016 4.507-12.86c.988-.804 2.099-1.051 3.458-.37 1.729.803 3.766 2.905 6.236 7.109.556.927 1.112 1.855 1.605 2.782a193.32 193.32 0 014.508 8.346c4.013 7.914 6.915 14.838 8.768 19.97.123.371.308.804.432 1.175l.185.556c1.235 3.462 1.914 5.873 2.1 6.924zm-68.723 216.944h-21.179a1.8 1.8 0 011.235-1.731 17.032 17.032 0 002.593-1.236c.309-.186.556-.31.803-.495.123-.124.247-.186.37-.309.247-.186.494-.371.68-.557.123-.123.247-.185.37-.309.247-.247.432-.433.679-.618.803-.866 1.173-1.484 1.173-1.484s.741-1.607 1.297-.927c.556.742-.617 3.277 3.211 3.277s6.545-.928 7.409-2.35l1.359 6.739z" fill="#E6EBEF"/><path d="M655.118 349.165h-21.364v.928h21.364v-.928zm-15.869-2.658l-.679.618-.803-.865c.309-.186.556-.31.803-.495l.679.742zm1.05-.928l-.679.619-.741-.742c.247-.186.494-.371.679-.557l.741.68zm.988-.927l-.679.618-.68-.68c.247-.247.433-.433.68-.618l.679.68z" fill="#3A3A3A"/><path d="M683.953 349.227h-21.302a1.8 1.8 0 011.235-1.731 17.032 17.032 0 002.593-1.236c.309-.186.556-.31.803-.495.123-.124.247-.186.37-.309.247-.186.494-.371.679-.557.124-.123.247-.185.371-.309.247-.247.432-.433.679-.618.803-.866 1.173-1.484 1.173-1.484s.741-1.607 1.297-.927c.556.742-.618 3.277 3.211 3.277 3.828 0 6.606-.928 7.471-2.35l1.42 6.739z" fill="#E6EBEF"/><path d="M683.953 349.165h-21.488v.928h21.488v-.928zm-15.93-2.658l-.679.618-.865-.865c.309-.186.556-.31.803-.495l.741.742zm1.049-.928l-.679.619-.741-.742c.247-.186.494-.371.679-.557l.741.68zm.988-.927l-.679.618-.679-.68c.247-.247.432-.433.679-.618l.679.68z" fill="#3A3A3A"/><path opacity=".46" d="M658.699 253.522l-.617 10.819-1.606 29.12-2.717 48.965 1.359 6.801h-5.495l2.963-95.705h6.113z" fill="#AAA"/><path d="M625.974 209.255s.988 28.44 3.705 49.646h35.688v-49.646h-39.393z" fill="#C4C5C6"/><path d="M704.699 209.255s.433 25.967-5.618 50.573h-38.777l-5.433-50.573h49.828zM674.814 78.99c0 8.285-6.545 15.024-14.633 15.024-8.089 0-14.634-6.74-14.634-15.024 0-.742.062-1.483.124-2.164 1.914-.432 3.828-.68 5.865-.68h22.97c.247.928.308 1.917.308 2.844z" fill="#E6EBEF"/><path d="M638.261 49.005c.309.062.618.062.926.062.988 0 1.853-.804 1.853-1.793V37.94c0-.99-.741-1.793-1.729-1.793-3.458 0-6.298 2.72-6.483 6.182-.124 3.215 2.284 6.183 5.433 6.677z" fill="#ED9B85"/><path d="M638.2 46.1c.308 0 .617-.062.926-.124v-6.677c-.309-.062-.618-.124-.926-.124a3.455 3.455 0 00-3.458 3.462A3.455 3.455 0 00638.2 46.1z" fill="#AF6152"/><path d="M681.236 10.86v45.75c0 5.502-3.766 10.077-8.829 11.314v10.943c0 6.924-5.619 12.488-12.473 12.488-4.26 0-8.027-2.102-10.25-5.378a12.299 12.299 0 01-2.223-7.11V67.244h-.123a11.984 11.984 0 01-3.52-1.855 9.802 9.802 0 01-1.852-1.731c-.123-.124-.185-.247-.309-.371a11.787 11.787 0 01-1.605-2.535 12.09 12.09 0 01-1.173-5.193l-.124-20.712-.061-6.986v-3.4c.185-25.472 4.075-13.663 6.051-13.663h36.491v.061z" fill="#FFB9A1"/><path d="M640.855 46.842a7.73 7.73 0 011.111 4.018v12.798c-.123-.124-.185-.247-.309-.371a12.198 12.198 0 01-2.778-7.728l-.124-20.712-.061-6.986v-3.4l.494.495v17.496c0 .927.247 1.793.679 2.597l.988 1.793z" fill="#EFA28E"/><path d="M681.236 10.86v45.75c0 5.502-3.766 10.077-8.83 11.314v10.943c0 6.924-5.618 12.488-12.472 12.488-4.261 0-8.027-2.102-10.25-5.379a12.298 12.298 0 01-2.223-7.11V67.245h-.123a12.402 12.402 0 01-5.743-3.895l4.076 1.854a12.907 12.907 0 005.248 1.113h9.756a2.967 2.967 0 002.964-2.967V52.097c0-1.855.864-3.648 2.408-4.761a5.422 5.422 0 002.223-4.39V19.144l3.581-8.223h9.385v-.062z" fill="#EFA28E"/><path d="M657.217 57.599c-1.605 1.917-5.063 4.76-9.57.062-.494-.495-.124-1.299.555-1.299h8.459c.68-.061.988.68.556 1.237zm3.396-3.957c1.262 0 2.285-.775 2.285-1.731 0-.956-1.023-1.731-2.285-1.731-1.262 0-2.284.775-2.284 1.731 0 .956 1.022 1.731 2.284 1.731zm-15.498 0c1.262 0 2.284-.775 2.284-1.731 0-.956-1.022-1.731-2.284-1.731-1.262 0-2.285.775-2.285 1.731 0 .956 1.023 1.731 2.285 1.731z" fill="#E09480"/><path d="M653.142 41.957c-.124-.989-1.482-1.113-1.791-.185-.617 1.793-1.482 3.895-2.346 4.884-1.605 1.916 0 3.957 2.346 3.462 1.791-.309 2.223-4.637 1.791-8.16z" fill="#DD6B6B"/><path d="M662.836 40.659a2.285 2.285 0 002.284-2.288 2.285 2.285 0 10-4.569 0 2.286 2.286 0 002.285 2.288zm-17.474 0a2.286 2.286 0 002.285-2.288 2.286 2.286 0 10-4.57 0 2.286 2.286 0 002.285 2.288z" fill="#2D2D2D"/><path d="M670.369 21.431s-49.829 17.62-50.137-8.16c0-.866 1.049-1.299 1.667-.68.802.803 1.914 1.421 3.334 1.236 3.272-.495 28.712-22.813 46.062-8.717 0 0 12.164-3.277 12.287 9.768.124 13.045-2.346 28.563-2.346 28.563s-13.213.557-10.867-22.01z" fill="#3A3A3A"/><path d="M661.478 51.416s-1.112 1.299-2.717 2.72c-1.976 1.794-4.693 3.834-6.854 3.834-1.358 0-2.655-.866-3.705-1.917-1.852-1.978-3.087-4.637-3.087-4.637s.741.186 2.161.433c2.161.31 5.804.557 10.682.062 1.111-.124 2.285-.31 3.52-.495z" fill="#212121"/><path d="M658.02 51.911v.371c0 .557-.432 1.051-1.05 1.051h-8.644c-.556 0-1.05-.433-1.05-1.05v-.434c2.161.248 5.866.557 10.744.062z" fill="#fff"/><path d="M658.761 54.137c-1.976 1.793-4.693 3.833-6.854 3.833-1.359 0-2.655-.866-3.705-1.917 1.235-1.05 4.014-2.164 10.559-1.916z" fill="#D64D4D"/><path d="M667.776 33.055a16.47 16.47 0 00-9.88.061 1.342 1.342 0 01-1.729-1.298v-.927c0-.619.433-1.175.988-1.299 1.729-.494 5.743-1.174 11.3.062.617.124 1.05.68 1.05 1.299v.741c.061.99-.803 1.67-1.729 1.36zm-17.722 0a16.472 16.472 0 00-9.879.061 1.342 1.342 0 01-1.729-1.298v-.927c0-.619.433-1.175.988-1.299 1.729-.494 5.743-1.174 11.3.062.617.124 1.049.68 1.049 1.299v.741c.062.99-.864 1.67-1.729 1.36z" fill="#3A3A3A"/><path d="M679.878 36.208c-.309-.062-.618-.062-.926-.062-.988 0-1.853.803-1.853 1.793v9.335c0 .99.741 1.793 1.729 1.793 3.458 0 6.298-2.72 6.484-6.182.185-3.215-2.223-6.121-5.434-6.677z" fill="#FFB9A1"/><path d="M680.001 39.113c-.309 0-.618.062-.926.124v6.677c.308.062.617.124.926.124a3.455 3.455 0 003.458-3.462c0-1.855-1.544-3.463-3.458-3.463z" fill="#AF6152"/><path d="M644.251 64.523l-.433.866a9.8 9.8 0 01-1.852-1.731c-.123-.124-.185-.248-.309-.371a11.788 11.788 0 01-1.605-2.535l1.914-1.298c-.062.061-.556 4.265 2.285 5.07z" fill="#EFA28E"/><path d="M648.326 66.564h8.644c.494 0 .741-.619.432-.99l-5.248-5.255c-.247-.247-.679-.185-.864.124l-3.335 5.255c-.308.371-.061.866.371.866z" fill="#3A3A3A"/><path d="M685.558 293.461l-.247 3.4-.123 1.979-.124 2.535v.432h-16.548v-.432l-.123-2.535-.124-1.979-.185-3.4h17.474z" fill="#E6EBEF"/><path d="M685.311 296.861H668.27l.123 1.979h16.795l.123-1.979z" fill="#3A3A3A"/><path d="M676.049 124.246a3.032 3.032 0 01-3.025-3.029v-7.728c0-1.67 1.358-3.03 3.025-3.03a3.032 3.032 0 013.026 3.03v7.728a3.032 3.032 0 01-3.026 3.029z" fill="#E6EBEF"/><path d="M702.106 132.283h-6.668l-3.705-31.036.37-2.596s.988-10.016 4.508-12.86l5.495 46.492zm10.188 0h-6.668l-5.557-46.863c1.728.804 3.766 2.906 6.236 7.11.556.927 1.111 1.855 1.605 2.782l4.384 36.971zm10.188 0h-6.669l-3.396-28.625c4.014 7.914 6.916 14.838 8.768 19.97.124.371.309.804.433 1.174l.864 7.481zm-101.139-29.799l-3.581 30.232h-6.669l1.174-9.954c3.272-8.284 6.359-14.899 9.076-20.278zm53.784 149.958a6.55 6.55 0 006.545-6.554 6.549 6.549 0 00-6.545-6.553 6.55 6.55 0 00-6.545 6.553 6.55 6.55 0 006.545 6.554z" fill="#3A3A3A"/><ellipse cx="500.359" cy="370.54" rx="57.359" ry="6.476" fill="#1F1D1D"/><path d="M485.029 258.512l-38.858-46.523 53.132-2.908 54.454 2.643-38.858 46.788-5.022 39.122h4.493l.529 26.434h-10.838v13.481h17.446l3.437 23.791h-50.489l3.437-23.791h17.182v-13.481h-10.31v-26.434h5.552l-5.287-39.122z" fill="#F1B90E"/><path d="M504.061 337.813l-28.549 23.527h49.167l-3.172-23.527h-17.446z" fill="#E99707"/><path d="M502.475 310.323c-.423-8.459-11.807-10.926-17.446-11.103v23.526c5.991-.616 17.869-3.965 17.446-12.423zm1.322-2.115c-.529-6.609 3.965-8.459 6.608-10.045h3.965v19.825c-2.908-1.498-10.087-3.7-10.573-9.78z" stroke="#BF940A"/><path d="M506.969 259.041l27.755-47.317h9.252l-32.778 47.317-4.229 38.857h-2.115l2.115-38.857zm-13.482 0l-27.755-47.317h-9.252l32.778 47.317 4.229 38.857h2.115l-2.115-38.857z" fill="#C6970D"/><path fill="#302E2E" d="M466.525 361.604h67.671v11.102h-67.671z"/><path d="M485.293 258.777l-38.858-46.524 53.132-2.908 54.454 2.644-38.858 46.788-5.023 39.122h4.494l.529 26.433h-10.838v13.482h17.446l3.437 23.79h-50.489l3.437-23.79h17.182v-13.482h-10.31v-26.433h5.551l-5.286-39.122z" stroke="#8F6D08"/><path d="M490.051 297.37h20.71l.173 1.057h-21.147l.264-1.057zm-5.022-38.858h30.663l-.264 1.058h-30.399v-1.058zm5.022 65.292h20.619l.264 1.057h-21.147l.264-1.057z" fill="#8F6D08"/></svg>