<svg width="1049" height="362" fill="none" xmlns="http://www.w3.org/2000/svg"><path d="M61.019 234.358c-4.433 3.659-8.866 8.625-13.3 14.898a116.104 116.104 0 00-11.342 19.995c-2.869 7.057-4.825 14.114-5.868 21.171-1.043 6.796-.651 12.807 1.174 18.035 2.086 4.966 5.867 8.625 11.343 10.977 5.737 2.091 13.95 1.96 24.642-.392 10.43-2.614 21.252-6.796 32.465-12.546 11.213-5.75 21.513-12.284 30.901-19.602 9.387-7.58 17.08-15.421 23.078-23.524 5.997-8.102 8.996-15.682 8.996-22.739 0-7.58-2.608-13.983-7.823-19.211-4.955-5.227-11.343-9.801-19.166-13.722-7.562-4.181-16.037-7.841-25.425-10.977a626.52 626.52 0 01-26.598-10.586c-8.344-3.92-15.776-8.363-22.295-13.329-6.519-4.966-10.822-11.109-12.908-18.427-2.868-9.932-1.825-21.171 3.13-33.717 5.215-12.807 12.777-25.353 22.686-37.637C84.618 70.741 96.222 59.632 109.52 49.7c13.299-10.193 26.598-17.511 39.897-21.955 13.559-4.443 26.207-5.358 37.941-2.744 11.995 2.614 21.774 10.455 29.336 23.523 1.825-3.92 4.172-8.364 7.04-13.33 3.13-4.966 6.128-9.8 8.997-14.506 2.868-4.704 5.606-8.886 8.214-12.545 2.868-3.66 5.085-6.012 6.649-7.057 2.347-1.569 6.128-1.438 11.344.392 5.215 1.568 10.039 4.051 14.472 7.449 4.694 3.136 8.214 6.665 10.561 10.585 2.608 3.92 2.347 7.057-.782 9.41-4.955 4.443-10.561 10.846-16.82 19.21-6.258 8.103-12.516 17.25-18.775 27.444-5.997 9.932-11.734 20.387-17.21 31.364-5.476 10.717-10.039 20.91-13.69 30.581-3.39 9.409-5.607 17.773-6.65 25.091-.782 7.057.261 12.023 3.13 14.898-2.608 2.353-5.998 3.267-10.17 2.745-4.172-.784-8.214-2.614-12.126-5.489-3.911-3.137-7.301-7.057-10.17-11.762-2.607-4.966-3.52-10.455-2.738-16.466.783-7.318 2.608-15.421 5.476-24.307a1068.56 1068.56 0 008.997-26.66c2.868-9.148 4.954-17.773 6.258-25.876 1.565-8.364 1.174-15.682-1.173-21.955-1.304-3.398-4.824-4.312-10.561-2.744-5.476 1.307-12.126 4.443-19.949 9.41-7.823 4.704-16.167 10.715-25.033 18.034a257.958 257.958 0 00-24.251 23.523c-7.562 8.102-14.081 16.336-19.557 24.699-5.216 8.364-8.214 15.813-8.997 22.347-.782 6.535 1.565 12.023 7.04 16.467 5.738 4.182 13.039 8.364 21.905 12.546 9.127 3.92 19.036 8.102 29.727 12.545 10.691 4.182 20.47 9.41 29.336 15.682 9.127 6.012 16.559 13.592 22.295 22.74 5.737 8.886 8.214 19.994 7.432 33.324-.261 6.535-2.738 13.591-7.432 21.171-4.433 7.58-10.43 15.16-17.992 22.739-7.562 7.58-16.298 14.898-26.207 21.955-9.909 7.057-20.47 13.33-31.683 18.819-11.213 5.75-22.686 10.455-34.42 14.114-11.735 3.659-23.078 5.881-34.03 6.665-9.388.523-17.341.131-23.86-1.176-6.52-1.307-11.995-3.267-16.428-5.881-5.216-3.398-8.997-7.58-11.344-12.546C1.173 337.207 0 331.718 0 325.707c0-6.273.913-12.807 2.738-19.603 1.825-6.795 4.303-13.591 7.432-20.387a217.688 217.688 0 0118.384-32.148c7.301-10.194 14.602-18.819 21.904-25.876 1.304-1.045 2.868-1.437 4.694-1.176 1.825 0 3.39.523 4.693 1.568 1.304.784 2.086 1.83 2.347 3.137.522 1.307.13 2.352-1.173 3.136zm355.368-108.599c7.823 3.659 14.733 7.58 20.731 11.762 5.997 4.182 11.213 8.494 15.646 12.937 8.344 8.887 10.952 22.74 7.823 41.558-.783 4.444-2.217 9.932-4.303 16.467-2.086 6.534-4.694 14.114-7.823 22.739a2645.294 2645.294 0 00-8.605 24.699 725.829 725.829 0 00-7.432 25.484c-5.215 17.773-7.823 32.41-7.823 43.91 0 12.546 4.694 18.949 14.081 19.211-3.129 5.488-8.996 7.318-17.601 5.488-4.433-1.045-8.736-2.875-12.908-5.488-3.911-2.614-7.823-6.012-11.734-10.194-7.563-8.364-10.17-19.864-7.823-34.501 2.347-9.409 5.215-19.472 8.605-30.188 3.39-10.716 7.432-21.955 12.125-33.717 5.737-15.159 10.17-27.705 13.299-37.637 1.826-6.273 2.999-12.154 3.521-17.642.782-5.75.521-10.847-.783-15.29-1.825-8.364-9.126-14.898-21.904-19.603-.782 22.739-8.866 50.706-24.251 83.9-15.124 34.239-31.813 58.938-50.066 74.098-2.087 1.568-3.651 2.483-4.694 2.744-.261 0-.391.131-.391.392-.522.262-.913.392-1.174.392-.261 0-.652.131-1.173.392-8.605 2.353-19.166 1.438-31.683-2.744-13.038-4.966-24.121-11.239-33.247-18.819-9.649-7.579-15.255-16.466-16.82-26.659-1.304-29.535 4.955-56.456 18.775-80.764 6.78-12.284 13.56-22.477 20.34-30.58 7.04-8.102 14.342-14.114 21.904-18.034 5.737-3.398 11.474-4.182 17.21-2.353a62.831 62.831 0 018.606 3.921c3.129 1.568 6.519 3.398 10.169 5.489a20.45 20.45 0 013.13 1.96l3.129 1.568c5.997 3.398 8.996 7.972 8.996 13.722-.521 4.966-2.477 12.284-5.867 21.955a117.817 117.817 0 01-7.432 15.29c-2.607 4.966-5.737 9.802-9.387 14.506-7.041 9.932-15.385 16.467-25.034 19.603-4.954 1.83-9.387 2.352-13.299 1.568a52.534 52.534 0 00-6.258-1.176c-2.086-.523-4.172-1.437-6.258-2.744-5.737 18.818-5.216 33.063 1.564 42.734 6.519 9.67 13.951 13.199 22.296 10.585 17.732-7.318 38.071-34.893 61.018-82.723v-.392c1.304-2.876 2.608-6.273 3.912-10.194.521-2.091 1.043-3.659 1.564-4.705.522-1.306.783-2.221.783-2.744 7.04-23.523 3.52-39.728-10.561-48.615-3.39-2.091-4.433-5.358-3.129-9.801 1.564-4.705 4.172-9.148 7.823-13.33 4.693-4.443 8.735-7.449 12.125-9.017 4.433-1.83 7.953-1.176 10.561 1.96 1.825 3.137 3.39 5.489 4.694 7.057 2.347 3.921 5.085 7.449 8.214 10.586 2.868 3.136 8.475 6.795 16.819 10.977zm-95.44 32.149c-1.825 1.306-3.911 3.267-6.258 5.88-2.086 2.353-4.563 5.489-7.432 9.41a163.543 163.543 0 00-8.214 10.585 144.611 144.611 0 00-6.649 10.586c-4.694 7.579-7.041 12.023-7.041 13.329 5.998.785 11.735-1.829 17.211-7.841 2.346-2.875 4.563-6.011 6.649-9.409a55.308 55.308 0 005.867-10.977c1.565-4.182 2.738-7.972 3.521-11.37 1.043-3.659 1.825-7.057 2.346-10.193zm227.614 38.813c1.304-1.83 2.868-2.744 4.694-2.744 1.825-.262 3.389 0 4.693.784 1.565.784 2.738 1.829 3.521 3.136 1.043 1.307 1.173 2.614.391 3.921-2.869 6.011-7.041 13.852-12.517 23.523-5.476 9.671-11.474 19.341-17.993 29.012-6.519 9.671-13.299 18.427-20.339 26.268-6.78 7.841-12.908 12.937-18.384 15.29-3.39 1.307-7.302 1.699-11.734 1.176-4.433-.523-8.606-1.699-12.517-3.529-3.912-2.091-7.171-4.704-9.779-7.841-2.607-3.397-3.781-7.187-3.52-11.369.261-5.228 1.434-12.154 3.52-20.779 1.826-8.887 4.433-18.165 7.823-27.836a347.906 347.906 0 0110.561-29.012c3.912-9.671 7.953-17.904 12.126-24.699 1.303-2.091 3.911-3.137 7.823-3.137 4.172 0 8.214.784 12.125 2.352 3.911 1.569 7.171 3.66 9.779 6.273 2.607 2.614 3.259 5.358 1.955 8.233-12.255 23.524-20.6 41.95-25.033 55.28-4.433 13.069-5.867 21.563-4.303 25.484 1.044 2.875 3.26 3.267 6.65 1.176 3.39-2.352 7.562-6.665 12.517-12.938 5.215-6.273 11.082-14.375 17.601-24.307 6.519-9.932 13.299-21.171 20.34-33.717zm-24.642-41.166c-1.565 2.091-3.912 3.267-7.041 3.529-2.868.261-5.867 0-8.996-.784a28.515 28.515 0 01-7.823-4.313c-2.086-1.83-2.999-3.79-2.738-5.881.521-3.659 1.303-7.449 2.347-11.369 1.303-4.182 2.607-7.972 3.911-11.37 1.304-3.659 2.608-6.926 3.911-9.801 1.304-2.875 2.347-5.097 3.13-6.665 1.564-2.353 4.433-3.529 8.605-3.529 4.172-.261 8.214.392 12.125 1.96 4.173 1.569 7.562 3.66 10.17 6.273 2.608 2.614 3.129 5.228 1.565 7.841-.783 1.569-2.086 3.921-3.912 7.057a2155.13 2155.13 0 00-5.085 9.41l-5.476 9.409a459.769 459.769 0 00-4.693 8.233z" fill="#C6CBCD"/><path d="M656.431 193.585c1.044-1.046 2.347-1.438 3.912-1.177 1.825.262 3.52.915 5.085 1.961 1.564 1.045 2.738 2.483 3.52 4.312.782 1.568.652 3.267-.391 5.097-3.39 10.193-8.214 20.387-14.472 30.58-5.998 9.932-12.908 19.342-20.731 28.228-7.823 8.887-16.037 16.989-24.642 24.308-8.606 7.318-17.08 13.329-25.425 18.034-3.911 2.091-8.083 2.875-12.516 2.352-4.433-.522-8.866-1.699-13.299-3.528-4.433-2.091-8.475-4.443-12.126-7.057-3.651-2.614-6.649-5.097-8.996-7.449-4.955-5.228-7.693-12.154-8.214-20.779-.522-8.887.521-18.427 3.129-28.62 2.347-10.193 5.997-20.779 10.952-31.756 4.954-10.978 10.43-21.302 16.428-30.973 6.258-9.67 12.777-18.165 19.557-25.483 6.78-7.319 13.169-12.677 19.166-16.075 3.651-1.829 7.041-2.744 10.17-2.744 3.129-.261 6.389.261 9.779 1.568 3.39 1.046 6.78 2.745 10.17 5.097 3.65 2.091 7.692 4.443 12.125 7.057 6.259 3.921 9.127 8.887 8.605 14.898 0 2.875-1.173 7.972-3.52 15.29-2.086 7.319-5.215 15.029-9.387 23.131-3.912 7.841-8.866 15.291-14.864 22.348-5.737 6.795-12.256 11.369-19.557 13.721-5.215 1.307-9.779 1.699-13.69 1.177-3.912-.523-8.214-1.83-12.908-3.921-1.304 2.614-2.738 6.534-4.303 11.762a100.12 100.12 0 00-3.52 15.29c-.782 5.227-1.043 9.932-.782 14.114.26 3.92 1.825 6.142 4.693 6.665 4.173.784 10.04-1.438 17.602-6.665 7.823-5.228 15.907-12.023 24.251-20.387 8.344-8.625 16.558-18.296 24.642-29.012 8.084-10.716 14.603-21.171 19.557-31.364zm-39.114-29.013c-2.608 1.83-5.998 5.359-10.17 10.586-3.911 4.966-7.823 10.324-11.734 16.074-3.651 5.75-6.911 11.108-9.779 16.074-2.608 4.966-3.911 8.103-3.911 9.41 4.693.784 8.996-.654 12.907-4.313 4.173-3.659 7.823-8.233 10.952-13.722 3.39-5.75 5.998-11.761 7.823-18.034 2.087-6.273 3.39-11.631 3.912-16.075zm359.362-22.347a928.627 928.627 0 0011.735-27.051c4.172-9.671 7.822-18.427 10.952-26.268 3.394-7.841 5.864-14.245 7.434-19.21 1.56-4.967 1.69-7.32.39-7.058-12.518 8.887-25.035 19.864-37.551 32.933-12.517 13.068-25.425 29.012-38.724 47.831 9.127-2.353 17.08-3.398 23.86-3.137 7.041.261 14.342.915 21.904 1.96zm-13.299 35.677c-.521-2.091-3.52-3.267-8.996-3.528-5.476-.523-11.735-.131-18.775 1.176-7.041 1.045-14.081 2.875-21.122 5.489-6.78 2.352-11.995 5.096-15.646 8.233-1.825 2.614-4.563 7.318-8.214 14.114-3.651 6.795-7.692 14.767-12.125 23.915-4.173 9.148-8.475 19.08-12.908 29.796-4.173 10.455-7.693 20.91-10.561 31.365-2.869 10.455-4.824 20.387-5.867 29.796-.783 9.409.13 17.512 2.738 24.307 1.043 2.353 1.173 4.182.391 5.489-.783 1.307-1.956 2.091-3.521 2.352-1.303.523-2.868.523-4.693 0-1.565-.261-2.869-.784-3.912-1.568-4.433-3.92-8.605-9.278-12.516-16.074-3.651-7.057-5.868-16.074-6.65-27.052-.782-10.977.522-24.177 3.912-39.597 3.65-15.421 10.821-33.586 21.513-54.496-.261 0-2.347 1.568-6.259 4.705-3.911 3.136-8.214 6.926-12.908 11.369a113.967 113.967 0 00-12.907 14.506c-3.912 4.966-5.998 9.54-6.259 13.722-2.868 1.568-6.128 1.046-9.778-1.568-3.39-2.614-6.389-6.142-8.997-10.585-2.607-4.444-4.302-9.279-5.085-14.507-.782-5.488.261-10.062 3.13-13.721 3.65-4.705 9.517-10.063 17.601-16.075 8.345-6.011 17.211-11.761 26.598-17.25 9.388-5.75 18.514-10.847 27.38-15.29s15.776-7.58 20.731-9.41c7.562-11.761 16.037-23.784 25.424-36.069 9.388-12.545 19.167-24.438 29.336-35.677 10.17-11.5 20.34-21.955 30.51-31.364 10.17-9.67 19.818-17.642 28.945-23.915 5.736-3.92 12.13-5.75 19.17-5.489 7.04.261 13.29 1.83 18.77 4.705 5.74 2.875 10.3 6.795 13.69 11.761 3.39 4.705 4.3 9.802 2.74 15.29-2.09 6.796-4.83 15.03-8.22 24.7-3.39 9.41-6.51 17.773-9.38 25.091a8855.918 8855.918 0 00-21.52 54.496 2244.87 2244.87 0 00-21.9 58.416c-7.04 19.341-13.56 38.421-19.557 57.24-5.998 18.819-10.952 36.2-14.864 52.143-1.304 4.705-4.433 7.841-9.387 9.41-4.955 1.568-10.04 1.96-15.255 1.176-5.215-.784-9.779-2.614-13.69-5.489-3.912-2.875-5.215-6.273-3.912-10.193 6.78-24.308 14.734-48.484 23.86-72.53a2368.834 2368.834 0 0128.945-73.315z" fill="#C6CBCD"/></svg>